<svg width="500" height="500" viewBox="0 0 500 508" fill="none" xmlns="http://www.w3.org/2000/svg">
<g clip-path="url(#clip0)">
<path d="M207.929 76H148.269V222.208H207.929V76Z" fill="#0066B2"/>
<path d="M258 522.16C379.995 522.16 478.89 465.063 478.89 394.63C478.89 324.197 379.995 267.1 258 267.1C136.006 267.1 37.1104 324.197 37.1104 394.63C37.1104 465.063 136.006 522.16 258 522.16Z" fill="#F5F5F5"/>
<path d="M106.8 456.33C129.974 456.33 148.76 445.486 148.76 432.11C148.76 418.734 129.974 407.89 106.8 407.89C83.626 407.89 64.8398 418.734 64.8398 432.11C64.8398 445.486 83.626 456.33 106.8 456.33Z" fill="#E0E0E0"/>
<path d="M276.28 296.74L94.1998 401.87C92.9393 402.598 91.8925 403.644 91.1647 404.904C90.4369 406.165 90.0537 407.595 90.0537 409.05C90.0537 410.505 90.4369 411.935 91.1647 413.196C91.8925 414.456 92.9393 415.503 94.1998 416.23L193.57 473.6C197.044 475.609 200.986 476.667 205 476.667C209.013 476.667 212.956 475.609 216.43 473.6L391.23 372.68C392.49 371.952 393.537 370.906 394.265 369.646C394.993 368.385 395.376 366.955 395.376 365.5C395.376 364.045 394.993 362.615 394.265 361.354C393.537 360.094 392.49 359.048 391.23 358.32L284.58 296.74C283.318 296.013 281.887 295.63 280.43 295.63C278.973 295.63 277.542 296.013 276.28 296.74Z" fill="#E0E0E0"/>
<path d="M222.25 468.41C221.23 468.927 220.103 469.197 218.96 469.197C217.816 469.197 216.689 468.927 215.67 468.41C213.85 467.36 213.85 465.66 215.67 464.61C216.689 464.093 217.816 463.823 218.96 463.823C220.103 463.823 221.23 464.093 222.25 464.61C224.07 465.66 224.07 467.36 222.25 468.41Z" fill="#455A64"/>
<path d="M223.629 362.13H214.319V466.4H223.629V362.13Z" fill="#455A64"/>
<path d="M113.11 405.81C112.091 406.327 110.963 406.597 109.82 406.597C108.677 406.597 107.55 406.327 106.53 405.81C104.71 404.76 104.71 403.06 106.53 402.01C107.55 401.493 108.677 401.223 109.82 401.223C110.963 401.223 112.091 401.493 113.11 402.01C114.93 403.06 114.93 404.76 113.11 405.81Z" fill="#455A64"/>
<path d="M114.48 299.53H105.17V403.8H114.48V299.53Z" fill="#455A64"/>
<path d="M384.389 373.84C383.37 374.357 382.243 374.627 381.099 374.627C379.956 374.627 378.829 374.357 377.809 373.84C375.989 372.84 375.989 371.09 377.809 370.04C378.829 369.523 379.956 369.253 381.099 369.253C382.243 369.253 383.37 369.523 384.389 370.04C386.209 371.09 386.209 372.79 384.389 373.84Z" fill="#455A64"/>
<path d="M385.76 267.57H376.45V371.84H385.76V267.57Z" fill="#455A64"/>
<path d="M275.25 311.24C274.23 311.757 273.103 312.027 271.96 312.027C270.816 312.027 269.689 311.757 268.67 311.24C266.85 310.19 266.85 308.49 268.67 307.44C269.689 306.923 270.816 306.653 271.96 306.653C273.103 306.653 274.23 306.923 275.25 307.44C277.07 308.49 277.07 310.19 275.25 311.24Z" fill="#455A64"/>
<path d="M276.62 210.97H267.31V315.24H276.62V210.97Z" fill="#455A64"/>
<path d="M81.7598 300.71V306.87L205 378.03V371.86L81.7598 300.71Z" fill="#7DA8FF"/>
<path opacity="0.3" d="M81.7598 300.71V306.87L205 378.03V371.86L81.7598 300.71Z" fill="black"/>
<path d="M403.67 257.16L205 371.86V378.03L403.67 263.32V257.16Z" fill="#7DA8FF"/>
<path opacity="0.3" d="M403.67 257.16L205 371.86V378.03L403.67 263.32V257.16Z" fill="white"/>
<path d="M271 205L81.7598 300.71L205 371.86L403.67 257.16L271 205Z" fill="#0066B2"/>
<path d="M251.208 177.62V117.959L105 117.959V177.62H251.208Z" fill="#0066B2"/>
<path d="M327.221 125.34C327.135 126.127 327.22 126.923 327.468 127.674C327.717 128.425 328.124 129.114 328.662 129.694C328.912 129.986 329.229 130.213 329.586 130.354C331.454 130.963 331.565 127.157 331.017 126.071C330.469 124.985 327.495 122.894 327.221 125.34Z" fill="url(#paint0_linear)"/>
<path d="M360.696 123.209C360.779 123.995 360.693 124.79 360.445 125.541C360.196 126.292 359.79 126.981 359.254 127.563C359.003 127.857 358.682 128.084 358.321 128.223C356.463 128.831 356.351 125.025 356.889 123.939C357.427 122.853 360.422 120.762 360.696 123.209Z" fill="url(#paint1_linear)"/>
<path opacity="0.24" d="M390.678 464.333C392.413 462.973 393.367 460.882 394.738 459.137C400.208 451.94 410.582 451.524 419.341 449.301C427.044 447.332 434.164 443.549 440.107 438.269C423.868 436.32 407.394 437.254 391.043 438.167L280.42 444.419C274.214 444.632 268.032 445.31 261.928 446.449C260.273 446.794 258.477 447.322 257.563 448.743C256.548 450.357 257.076 452.61 258.345 454.062C259.711 455.43 261.37 456.471 263.196 457.107C280.705 464.557 300.07 469.286 318.787 465.856C320.086 465.622 321.558 465.196 322.085 463.988C322.613 462.78 321.862 461.248 322.085 459.928C322.532 457.381 325.871 456.802 328.449 456.822L353.093 456.944C354.541 456.808 355.996 457.105 357.275 457.797C359.802 459.522 359.457 463.714 361.903 465.551C363.124 466.296 364.533 466.676 365.963 466.647C372.449 466.992 385.126 468.677 390.678 464.333Z" fill="#0066B2"/>
<path d="M360.432 154.236C360.432 154.236 382.761 184.077 392.911 198.825C403.061 213.572 413.921 159.819 413.921 159.819L429.938 169.766C429.938 169.766 416.824 244.407 387.978 222.443C359.133 200.479 360.432 154.236 360.432 154.236Z" fill="#68E1FD"/>
<path d="M360.432 154.236C360.432 154.236 382.761 184.077 392.911 198.825C403.061 213.572 413.921 159.819 413.921 159.819L429.938 169.766C429.938 169.766 416.824 244.407 387.978 222.443C359.133 200.479 360.432 154.236 360.432 154.236Z" fill="url(#paint2_linear)"/>
<path d="M335.453 147.872C327.11 151.932 320.787 159.037 314.707 166.071C313.6 167.535 312.771 169.19 312.261 170.953C305.359 189.426 306.354 201.403 304.141 216.424C302.355 228.756 298.518 241.312 301.39 253.441C301.39 253.441 302.05 303.073 304.679 310.939L386.628 308.98C386.628 308.98 380.396 228.797 379.859 218.931C377.23 171.288 367.618 160.793 360.401 154.236C353.185 147.68 335.453 147.872 335.453 147.872Z" fill="#68E1FD"/>
<path d="M335.453 147.872C327.11 151.932 320.787 159.037 314.707 166.071C313.6 167.535 312.771 169.19 312.261 170.953C305.359 189.426 306.354 201.403 304.141 216.424C302.355 228.756 298.518 241.312 301.39 253.441C301.39 253.441 302.05 303.073 304.679 310.939L386.628 308.98C386.628 308.98 380.122 232.705 380.072 222.869C379.859 181.347 369.475 161.128 360.401 154.236C352.667 148.35 335.453 147.872 335.453 147.872Z" fill="url(#paint3_linear)"/>
<path d="M365.11 200.55L377.29 200.134C377.29 200.134 379.005 216.688 375.9 217.673C372.794 218.657 365.405 217.835 365.405 217.835L365.11 200.55Z" fill="white"/>
<path d="M333.229 153.262C333.229 153.262 342.73 162.275 347.977 156.205C353.225 150.136 352.565 152.44 352.565 152.44L348.962 210.131L333.229 153.262Z" fill="#606161"/>
<path d="M346.394 93.6421C344.624 91.4773 342.071 90.0986 339.29 89.8054C336.62 89.5212 333.667 90.455 332.185 92.7083C331.267 94.4416 330.842 96.3935 330.957 98.3516C330.798 100.172 331.084 102.004 331.789 103.69C332.661 105.275 334.078 106.491 335.778 107.111C337.75 107.793 339.872 107.921 341.912 107.481C343.953 107.04 345.833 106.049 347.349 104.614C350.434 101.823 348.719 96.5043 346.394 93.6421Z" fill="#606161"/>
<path d="M346.394 93.6421C344.624 91.4773 342.071 90.0986 339.29 89.8054C336.62 89.5212 333.667 90.455 332.185 92.7083C331.267 94.4416 330.842 96.3935 330.957 98.3516C330.798 100.172 331.084 102.004 331.789 103.69C332.661 105.275 334.078 106.491 335.778 107.111C337.75 107.793 339.872 107.921 341.912 107.481C343.953 107.04 345.833 106.049 347.349 104.614C350.434 101.823 348.719 96.5043 346.394 93.6421Z" fill="url(#paint4_linear)"/>
<path d="M336.945 135.987C336.945 135.987 336.833 148.451 333.992 151.07C331.15 153.688 345.359 165.929 351.368 152.277C351.368 152.277 347.866 146.37 349.074 136.434C350.282 126.497 336.945 135.987 336.945 135.987Z" fill="url(#paint5_linear)"/>
<path d="M336.508 138.941V141.671C336.508 141.671 343.714 152.054 346.658 148.563C349.601 145.071 348.688 144.3 348.688 144.3L349.023 136.434L336.508 138.941Z" fill="url(#paint6_linear)"/>
<path d="M330.053 118.184C330.053 118.184 328.023 137.195 338.173 140.96C348.323 144.726 354.413 139.326 357.184 130.141C359.955 120.955 355.712 102.442 344.892 104.249C334.073 106.055 330.053 118.184 330.053 118.184Z" fill="url(#paint7_linear)"/>
<path d="M328.429 124.568C327.958 123.914 327.655 123.155 327.546 122.356C326.887 118.786 327.176 115.107 328.383 111.684C329.591 108.26 331.675 105.214 334.428 102.848C335.538 101.859 336.831 101.097 338.234 100.605C339.641 100.203 341.108 100.052 342.568 100.158C347.158 100.305 351.585 101.9 355.214 104.715C357.007 106.134 358.487 107.907 359.561 109.924C360.635 111.942 361.281 114.16 361.456 116.439C361.574 117.792 361.351 119.153 360.807 120.397C360.53 121.019 360.11 121.567 359.581 121.996C359.051 122.425 358.428 122.722 357.762 122.863C355.417 123.269 354.768 121.097 352.88 119.656C350.018 117.474 349.104 114.246 342.598 114.794C332.022 115.687 331.281 128.05 328.429 124.568Z" fill="#606161"/>
<path d="M325.851 154.409C325.851 154.409 290.449 178.992 288.967 225.376C288.114 252.253 318.472 247.706 319.416 247.016C320.36 246.326 323.354 223.417 323.354 223.417C323.354 223.417 312.535 223.417 311.225 221.448C309.916 219.479 325.851 154.409 325.851 154.409Z" fill="#68E1FD"/>
<path d="M325.851 154.409C325.851 154.409 290.449 178.992 288.967 225.376C288.114 252.253 318.472 247.706 319.416 247.016C320.36 246.326 323.354 223.417 323.354 223.417C323.354 223.417 312.535 223.417 311.225 221.448C309.916 219.479 325.851 154.409 325.851 154.409Z" fill="url(#paint8_linear)"/>
<path d="M311.265 310.29L309.956 438.796L310.941 456.822L324.044 457.482L343.714 317.831L360.025 457.726L374.042 457.645L375.849 308.98L311.265 310.29Z" fill="#606161"/>
<path d="M311.265 310.29L309.956 438.796L310.941 456.822L324.044 457.482L344.049 316.187L360.025 457.726L374.042 457.645L375.849 308.98L311.265 310.29Z" fill="url(#paint9_linear)"/>
<path d="M417.544 157.007C417.749 153.832 418.321 150.692 419.25 147.649C420.196 144.588 422.176 141.951 424.852 140.189C426.045 139.393 427.497 139.081 428.912 139.316C431.399 139.905 432.627 142.787 432.779 145.345C432.932 147.903 432.424 150.542 433.155 152.998C433.388 153.79 433.744 154.541 433.936 155.343C434.566 158.063 433.145 160.834 431.429 163.036C430.504 164.3 429.355 165.383 428.039 166.233C426.661 167 425.098 167.369 423.522 167.299C421.947 167.229 420.422 166.723 419.118 165.838C415.758 163.442 417.179 160.631 417.544 157.007Z" fill="url(#paint10_linear)"/>
<path d="M300.121 467.317L323.07 466.992L324.044 457.482L310.941 456.822L300.121 467.317Z" fill="#606161"/>
<path d="M383.959 467.317L361.01 466.992L360.025 457.482L373.139 456.822L383.959 467.317Z" fill="#606161"/>
<path d="M335.767 148.339C335.767 148.339 332.052 151.506 335.767 159.372C339.482 167.238 349.317 211.613 349.317 211.613L329.647 179.134L331.839 166.893L327.647 163.676C327.647 163.676 327.647 152.095 329.84 149.689C332.032 147.284 334.367 147.436 335.767 148.339Z" fill="#68E1FD"/>
<path d="M349.449 146.868C349.449 146.868 355.356 148.339 356.341 151.131C357.325 153.922 361.416 162.113 361.416 162.113L358.797 165.706L362.857 170.456L349.246 211.603C349.246 211.603 352.748 155.871 351.327 152.267C349.906 148.664 349.449 146.868 349.449 146.868Z" fill="#68E1FD"/>
<path d="M335.767 148.339C335.767 148.339 332.052 151.506 335.767 159.372C339.482 167.238 349.317 211.613 349.317 211.613L329.647 179.134L331.839 166.893L327.647 163.676C327.647 163.676 327.647 152.095 329.84 149.689C332.032 147.284 334.367 147.436 335.767 148.339Z" fill="url(#paint11_linear)"/>
<path d="M349.449 146.868C349.449 146.868 355.356 148.339 356.341 151.131C357.325 153.922 361.416 162.113 361.416 162.113L358.797 165.706L362.857 170.456L349.246 211.603C349.246 211.603 352.748 155.871 351.327 152.267C349.906 148.664 349.449 146.868 349.449 146.868Z" fill="url(#paint12_linear)"/>
<path d="M346.851 176.607C345.972 176.546 345.125 176.257 344.392 175.77C343.659 175.282 343.065 174.612 342.669 173.826C342.405 173.379 341.847 172.506 341.126 171.359C337.99 166.416 331.464 156.134 330.378 152.491C329.21 148.613 332.529 146.32 334.437 145.65L334.823 146.756C334.64 146.817 330.337 148.38 331.464 152.156C332.479 155.627 338.974 165.838 342.09 170.74C342.821 171.897 343.379 172.77 343.643 173.227C344.658 174.881 345.947 175.683 347.277 175.45C348.607 175.216 351.641 173.592 353.499 163.361C356.128 148.928 351.753 146.614 350.302 145.843L350.85 144.828C352.474 145.69 357.427 148.299 354.646 163.584C352.738 174.13 349.337 176.272 347.49 176.607C347.277 176.625 347.063 176.625 346.851 176.607Z" fill="#68E1FD"/>
<path d="M340.293 237.312C338.515 237.296 336.77 236.832 335.219 235.963C333.57 235.125 332.188 233.843 331.23 232.261C330.272 230.679 329.776 228.86 329.799 227.01C330.002 223.316 332.671 220.22 337.32 218.292C352.453 211.979 347.175 176.322 347.124 175.967L348.271 175.795C348.505 177.287 353.732 212.699 337.756 219.358C333.554 221.113 331.138 223.854 330.966 227.071C330.97 228.699 331.421 230.294 332.269 231.683C333.118 233.071 334.331 234.201 335.777 234.948C337.435 235.852 339.321 236.252 341.204 236.099C343.086 235.945 344.883 235.245 346.373 234.085C357.447 226.178 369.718 201.078 369.718 197.84H370.885C370.885 201.25 358.654 226.726 347.033 235.039C345.083 236.491 342.724 237.287 340.293 237.312Z" fill="#68E1FD"/>
<path d="M346.851 176.607C345.972 176.546 345.125 176.257 344.392 175.77C343.659 175.282 343.065 174.612 342.669 173.826C342.405 173.379 341.847 172.506 341.126 171.359C337.99 166.416 331.464 156.134 330.378 152.491C329.21 148.613 332.529 146.32 334.437 145.65L334.823 146.756C334.64 146.817 330.337 148.38 331.464 152.156C332.479 155.627 338.974 165.838 342.09 170.74C342.821 171.897 343.379 172.77 343.643 173.227C344.658 174.881 345.947 175.683 347.277 175.45C348.607 175.216 351.641 173.592 353.499 163.361C356.128 148.928 351.753 146.614 350.302 145.843L350.85 144.828C352.474 145.69 357.427 148.299 354.646 163.584C352.738 174.13 349.337 176.272 347.49 176.607C347.277 176.625 347.063 176.625 346.851 176.607Z" fill="url(#paint13_linear)"/>
<path d="M340.293 237.312C338.515 237.296 336.77 236.832 335.219 235.963C333.57 235.125 332.188 233.843 331.23 232.261C330.272 230.679 329.776 228.86 329.799 227.01C330.002 223.316 332.671 220.22 337.32 218.292C352.453 211.979 347.175 176.322 347.124 175.967L348.271 175.795C348.505 177.287 353.732 212.699 337.756 219.358C333.554 221.113 331.138 223.854 330.966 227.071C330.97 228.699 331.421 230.294 332.269 231.683C333.118 233.071 334.331 234.201 335.777 234.948C337.435 235.852 339.321 236.252 341.204 236.099C343.086 235.945 344.883 235.245 346.373 234.085C357.447 226.178 369.718 201.078 369.718 197.84H370.885C370.885 201.25 358.654 226.726 347.033 235.039C345.083 236.491 342.724 237.287 340.293 237.312Z" fill="url(#paint14_linear)"/>
<path d="M335.525 224.392L340.599 207.929C341.012 206.586 341.895 205.436 343.086 204.691C344.277 203.945 345.697 203.653 347.085 203.869L367.05 206.914C367.89 207.046 368.692 207.36 369.399 207.833C370.106 208.306 370.701 208.927 371.145 209.653C371.588 210.379 371.868 211.192 371.965 212.038C372.063 212.883 371.975 213.739 371.709 214.547L358.859 253.359C358.398 254.752 357.431 255.921 356.148 256.633C354.866 257.346 353.363 257.55 351.937 257.206L333.129 252.71C332.347 252.523 331.612 252.177 330.969 251.693C330.327 251.209 329.791 250.599 329.394 249.899C328.998 249.199 328.751 248.425 328.667 247.625C328.583 246.825 328.665 246.017 328.907 245.25L335.525 224.392Z" fill="#68E1FD"/>
<path d="M335.525 224.392L340.599 207.929C341.012 206.586 341.895 205.436 343.086 204.691C344.277 203.945 345.697 203.653 347.085 203.869L367.05 206.914C367.89 207.046 368.692 207.36 369.399 207.833C370.106 208.306 370.701 208.927 371.145 209.653C371.588 210.379 371.868 211.192 371.965 212.038C372.063 212.883 371.975 213.739 371.709 214.547L358.859 253.359C358.398 254.752 357.431 255.921 356.148 256.633C354.866 257.346 353.363 257.55 351.937 257.206L333.129 252.71C332.347 252.523 331.612 252.177 330.969 251.693C330.327 251.209 329.791 250.599 329.394 249.899C328.998 249.199 328.751 248.425 328.667 247.625C328.583 246.825 328.665 246.017 328.907 245.25L335.525 224.392Z" fill="url(#paint15_linear)"/>
<path d="M336.508 225.376L341.583 208.913C341.996 207.57 342.878 206.421 344.069 205.675C345.26 204.929 346.68 204.638 348.069 204.853L368.033 207.898C368.873 208.031 369.675 208.344 370.382 208.817C371.089 209.29 371.685 209.911 372.128 210.637C372.571 211.363 372.851 212.177 372.949 213.022C373.046 213.867 372.958 214.723 372.692 215.531L359.842 254.344C359.38 255.735 358.412 256.902 357.13 257.615C355.848 258.327 354.346 258.532 352.92 258.191L334.113 253.694C333.33 253.507 332.595 253.161 331.953 252.677C331.31 252.194 330.774 251.583 330.378 250.883C329.982 250.183 329.734 249.409 329.65 248.609C329.566 247.81 329.648 247.001 329.89 246.234L336.508 225.376Z" fill="#0066B2"/>
<path d="M341.532 222.748C342.908 222.624 344.294 222.805 345.592 223.275C346.24 223.515 346.813 223.924 347.25 224.459C347.687 224.995 347.973 225.637 348.079 226.32C348.211 227.954 346.983 229.365 345.612 230.269C344.242 231.172 342.649 231.679 341.349 232.674C339.746 233.912 338.731 235.719 337.34 237.221C335.697 238.899 333.599 240.057 331.304 240.554C329.009 241.05 326.619 240.862 324.43 240.012C322.89 239.5 321.599 238.428 320.813 237.009C320.027 235.589 319.804 233.926 320.187 232.349C320.41 230.847 320.999 227.883 322.217 226.838C323.435 225.793 326.927 225.407 328.5 224.97C332.742 223.724 337.116 222.978 341.532 222.748Z" fill="url(#paint16_linear)"/>
<path d="M358.807 124.569C358.928 124.452 359.028 124.314 359.101 124.163C359.14 123.982 359.164 123.799 359.172 123.614C359.198 123.433 359.288 123.268 359.426 123.148C359.494 123.088 359.577 123.047 359.666 123.029C359.755 123.011 359.847 123.017 359.934 123.046C360.009 123.081 360.076 123.132 360.13 123.195C360.184 123.258 360.224 123.332 360.248 123.411C360.292 123.567 360.316 123.727 360.319 123.889C360.383 124.517 360.289 125.152 360.045 125.736C359.808 126.12 359.51 126.463 359.162 126.751C359.105 126.825 359.033 126.886 358.951 126.932C358.869 126.977 358.778 127.005 358.685 127.015C358.561 127.007 358.441 126.965 358.34 126.893C358.289 126.874 358.246 126.838 358.218 126.791C358.209 126.748 358.209 126.703 358.218 126.659C358.137 126.23 358.137 125.789 358.218 125.36C358.332 125.044 358.537 124.768 358.807 124.569Z" fill="url(#paint17_linear)"/>
<path d="M329.352 126.619C329.225 126.505 329.121 126.367 329.048 126.213C329.009 126.032 328.985 125.849 328.977 125.665C328.953 125.483 328.862 125.317 328.723 125.198C328.655 125.137 328.572 125.095 328.483 125.077C328.394 125.06 328.301 125.066 328.216 125.096C328.141 125.131 328.075 125.182 328.022 125.245C327.97 125.308 327.932 125.382 327.911 125.462C327.857 125.615 327.833 125.777 327.84 125.939C327.776 126.564 327.87 127.196 328.114 127.776C328.346 128.161 328.641 128.504 328.987 128.791C329.11 128.938 329.284 129.032 329.474 129.055C329.597 129.044 329.716 129.002 329.819 128.933C329.866 128.908 329.908 128.873 329.941 128.831C329.95 128.788 329.95 128.743 329.941 128.699C330.022 128.27 330.022 127.83 329.941 127.4C329.823 127.089 329.619 126.818 329.352 126.619Z" fill="url(#paint18_linear)"/>
<path d="M368.379 198.094C368.589 199.371 369.261 200.527 370.266 201.342C370.544 201.626 370.896 201.826 371.281 201.92C371.714 201.957 372.146 201.838 372.499 201.585C373.17 201.168 373.695 200.555 374.004 199.828C374.313 199.101 374.39 198.297 374.225 197.525C373.382 194.44 368.054 194.409 368.379 198.094Z" fill="#68E1FD"/>
<path d="M369.363 196.652C369.515 198.358 371.738 202.742 374.803 201.301C375.731 200.792 376.462 199.986 376.878 199.013C377.294 198.039 377.371 196.954 377.097 195.932C376.021 191.801 368.927 191.76 369.363 196.652Z" fill="#68E1FD"/>
<path d="M369.364 196.652C369.973 202.326 374.317 201.606 374.804 201.301C375.693 200.751 376.39 199.94 376.8 198.979C377.211 198.018 377.315 196.954 377.098 195.932C376.022 191.801 368.836 191.77 369.364 196.652Z" fill="url(#paint19_linear)"/>
<path d="M370.53 196.967C370.926 200.611 373.717 200.144 374.022 199.951C374.593 199.6 375.041 199.081 375.307 198.465C375.572 197.849 375.641 197.167 375.503 196.51C374.803 193.851 370.195 193.831 370.53 196.967Z" fill="url(#paint20_linear)"/>
</g>
<defs>
<linearGradient id="paint0_linear" x1="327.191" y1="127.289" x2="331.301" y2="127.289" gradientUnits="userSpaceOnUse">
<stop stop-color="#E5C6D6"/>
<stop offset="0.42" stop-color="#EAD4D0"/>
<stop offset="1" stop-color="#F0E9CB"/>
</linearGradient>
<linearGradient id="paint1_linear" x1="2599.15" y1="1080.1" x2="2582.43" y2="1080.1" gradientUnits="userSpaceOnUse">
<stop stop-color="#E5C6D6"/>
<stop offset="0.42" stop-color="#EAD4D0"/>
<stop offset="1" stop-color="#F0E9CB"/>
</linearGradient>
<linearGradient id="paint2_linear" x1="26333.2" y1="20224.3" x2="26526.9" y2="16061.1" gradientUnits="userSpaceOnUse">
<stop stop-color="white" stop-opacity="0"/>
<stop offset="0.95" stop-color="white"/>
</linearGradient>
<linearGradient id="paint3_linear" x1="22757" y1="43204" x2="31297.5" y2="42758.7" gradientUnits="userSpaceOnUse">
<stop stop-color="#2B59D1"/>
<stop offset="0.95" stop-color="white"/>
</linearGradient>
<linearGradient id="paint4_linear" x1="337.686" y1="94.0075" x2="341.695" y2="104.665" gradientUnits="userSpaceOnUse">
<stop stop-color="#010101" stop-opacity="0"/>
<stop offset="0.95" stop-color="#010101"/>
</linearGradient>
<linearGradient id="paint5_linear" x1="5957.57" y1="4777.37" x2="6267.98" y2="4777.37" gradientUnits="userSpaceOnUse">
<stop stop-color="#E5C6D6"/>
<stop offset="0.42" stop-color="#EAD4D0"/>
<stop offset="1" stop-color="#F0E9CB"/>
</linearGradient>
<linearGradient id="paint6_linear" x1="4389.9" y1="2449.73" x2="4496.1" y2="1938.36" gradientUnits="userSpaceOnUse">
<stop offset="0.12" stop-color="#010101" stop-opacity="0"/>
<stop offset="0.95" stop-color="#010101"/>
</linearGradient>
<linearGradient id="paint7_linear" x1="9137.25" y1="5889.9" x2="9915.91" y2="5889.9" gradientUnits="userSpaceOnUse">
<stop stop-color="#E5C6D6"/>
<stop offset="0.42" stop-color="#EAD4D0"/>
<stop offset="1" stop-color="#F0E9CB"/>
</linearGradient>
<linearGradient id="paint8_linear" x1="270.109" y1="195.445" x2="320.604" y2="201.342" gradientUnits="userSpaceOnUse">
<stop stop-color="#389ED6"/>
<stop offset="0.95" stop-color="white"/>
</linearGradient>
<linearGradient id="paint9_linear" x1="21362.6" y1="64812.4" x2="27439.8" y2="37649.3" gradientUnits="userSpaceOnUse">
<stop offset="0.12" stop-color="#010101" stop-opacity="0"/>
<stop offset="0.95" stop-color="#010101"/>
</linearGradient>
<linearGradient id="paint10_linear" x1="7261.15" y1="5240.27" x2="7551.07" y2="5240.27" gradientUnits="userSpaceOnUse">
<stop stop-color="#E5C6D6"/>
<stop offset="0.42" stop-color="#EAD4D0"/>
<stop offset="1" stop-color="#F0E9CB"/>
</linearGradient>
<linearGradient id="paint11_linear" x1="7082.78" y1="13686.8" x2="7420.65" y2="13648.6" gradientUnits="userSpaceOnUse">
<stop stop-color="#389ED6"/>
<stop offset="0.95" stop-color="white"/>
</linearGradient>
<linearGradient id="paint12_linear" x1="366.714" y1="178.048" x2="350.758" y2="179.144" gradientUnits="userSpaceOnUse">
<stop stop-color="#389ED6"/>
<stop offset="0.11" stop-color="#3796D6"/>
<stop offset="0.2899" stop-color="#389ED6"/>
<stop offset="0.29" stop-color="#389ED6"/>
<stop offset="0.380208" stop-color="#389ED6"/>
<stop offset="0.45" stop-color="#389ED6"/>
<stop offset="0.6" stop-color="#389ED6"/>
<stop offset="0.74" stop-color="#389ED6"/>
<stop offset="0.86" stop-color="#389ED6"/>
<stop offset="0.95" stop-color="#389ED6"/>
</linearGradient>
<linearGradient id="paint13_linear" x1="8892.53" y1="5672.71" x2="6677.98" y2="7675.82" gradientUnits="userSpaceOnUse">
<stop offset="0.12" stop-color="#010101" stop-opacity="0"/>
<stop offset="0.95" stop-color="#010101"/>
</linearGradient>
<linearGradient id="paint14_linear" x1="15253.5" y1="12246.2" x2="11107.2" y2="15388.7" gradientUnits="userSpaceOnUse">
<stop offset="0.12" stop-color="#010101" stop-opacity="0"/>
<stop offset="0.95" stop-color="#010101"/>
</linearGradient>
<linearGradient id="paint15_linear" x1="13675.9" y1="12755.2" x2="16812.4" y2="15033.1" gradientUnits="userSpaceOnUse">
<stop offset="0.12" stop-color="#010101" stop-opacity="0"/>
<stop offset="0.95" stop-color="#010101"/>
</linearGradient>
<linearGradient id="paint16_linear" x1="8845.91" y1="4916.37" x2="9620.76" y2="4916.37" gradientUnits="userSpaceOnUse">
<stop stop-color="#E5C6D6"/>
<stop offset="0.42" stop-color="#EAD4D0"/>
<stop offset="1" stop-color="#F0E9CB"/>
</linearGradient>
<linearGradient id="paint17_linear" x1="1107.23" y1="739.179" x2="1088.79" y2="737.095" gradientUnits="userSpaceOnUse">
<stop offset="0.12" stop-color="#010101" stop-opacity="0"/>
<stop offset="0.95" stop-color="#010101"/>
</linearGradient>
<linearGradient id="paint18_linear" x1="958.84" y1="747.932" x2="977.284" y2="745.842" gradientUnits="userSpaceOnUse">
<stop offset="0.12" stop-color="#010101" stop-opacity="0"/>
<stop offset="0.95" stop-color="#010101"/>
</linearGradient>
<linearGradient id="paint19_linear" x1="3202.47" y1="2068.12" x2="3096.99" y2="2228.23" gradientUnits="userSpaceOnUse">
<stop offset="0.12" stop-color="#010101" stop-opacity="0"/>
<stop offset="0.95" stop-color="#010101"/>
</linearGradient>
<linearGradient id="paint20_linear" x1="2183.1" y1="1412.61" x2="2139.67" y2="1478.64" gradientUnits="userSpaceOnUse">
<stop offset="0.12" stop-color="#010101" stop-opacity="0"/>
<stop offset="0.95" stop-color="#010101"/>
</linearGradient>
<clipPath id="clip0">
<rect width="720" height="540" fill="white"/>
</clipPath>
</defs>
</svg>
