<svg width="500" height="448" viewBox="0 0 500 448" fill="none" xmlns="http://www.w3.org/2000/svg">
<g clip-path="url(#clip0)">
<path d="M196 452.16C317.994 452.16 416.89 395.063 416.89 324.63C416.89 254.197 317.994 197.1 196 197.1C74.0057 197.1 -24.8901 254.197 -24.8901 324.63C-24.8901 395.063 74.0057 452.16 196 452.16Z" fill="#F5F5F5"/>
<path d="M372.15 369.31L317.67 400.76C312.94 403.49 304.67 403.15 299.24 400L247.41 370.07C241.95 366.92 241.36 362.16 246.08 359.43L300.56 328C305.29 325.27 313.56 325.61 318.99 328.76L370.83 358.69C376.28 361.82 376.87 366.58 372.15 369.31Z" fill="#E0E0E0"/>
<path d="M253.53 419.36C277.251 419.36 296.48 407.424 296.48 392.7C296.48 377.976 277.251 366.04 253.53 366.04C229.809 366.04 210.58 377.976 210.58 392.7C210.58 407.424 229.809 419.36 253.53 419.36Z" fill="#E0E0E0"/>
<path d="M44.7998 386.33C67.9737 386.33 86.7598 375.486 86.7598 362.11C86.7598 348.734 67.9737 337.89 44.7998 337.89C21.626 337.89 2.83984 348.734 2.83984 362.11C2.83984 375.486 21.626 386.33 44.7998 386.33Z" fill="#E0E0E0"/>
<path d="M214.28 226.74L32.1998 331.87C30.9393 332.598 29.8925 333.644 29.1647 334.904C28.4369 336.165 28.0537 337.595 28.0537 339.05C28.0537 340.505 28.4369 341.935 29.1647 343.196C29.8925 344.456 30.9393 345.503 32.1998 346.23L131.57 403.6C135.044 405.609 138.986 406.667 143 406.667C147.013 406.667 150.956 405.609 154.43 403.6L329.23 302.68C330.49 301.952 331.537 300.906 332.265 299.646C332.993 298.385 333.376 296.955 333.376 295.5C333.376 294.045 332.993 292.615 332.265 291.354C331.537 290.094 330.49 289.048 329.23 288.32L222.58 226.74C221.318 226.013 219.887 225.63 218.43 225.63C216.973 225.63 215.542 226.013 214.28 226.74Z" fill="#E0E0E0"/>
<path d="M160.25 398.41C159.23 398.927 158.103 399.197 156.96 399.197C155.816 399.197 154.689 398.927 153.67 398.41C151.85 397.36 151.85 395.66 153.67 394.61C154.689 394.093 155.816 393.823 156.96 393.823C158.103 393.823 159.23 394.093 160.25 394.61C162.07 395.66 162.07 397.36 160.25 398.41Z" fill="#455A64"/>
<path d="M161.63 292.13H152.32V396.4H161.63V292.13Z" fill="#455A64"/>
<path d="M51.1096 335.81C50.09 336.327 48.9628 336.597 47.8196 336.597C46.6763 336.597 45.5491 336.327 44.5296 335.81C42.7096 334.76 42.7096 333.06 44.5296 332.01C45.5491 331.493 46.6763 331.223 47.8196 331.223C48.9628 331.223 50.09 331.493 51.1096 332.01C52.9296 333.06 52.9296 334.76 51.1096 335.81Z" fill="#455A64"/>
<path d="M52.4799 229.53H43.1699V333.8H52.4799V229.53Z" fill="#455A64"/>
<path d="M322.39 303.84C321.37 304.357 320.243 304.627 319.1 304.627C317.957 304.627 316.829 304.357 315.81 303.84C313.99 302.84 313.99 301.09 315.81 300.04C316.829 299.523 317.957 299.253 319.1 299.253C320.243 299.253 321.37 299.523 322.39 300.04C324.21 301.09 324.21 302.79 322.39 303.84Z" fill="#455A64"/>
<path d="M323.76 197.57H314.45V301.84H323.76V197.57Z" fill="#455A64"/>
<path d="M213.25 241.24C212.23 241.757 211.103 242.027 209.96 242.027C208.816 242.027 207.689 241.757 206.67 241.24C204.85 240.19 204.85 238.49 206.67 237.44C207.689 236.923 208.816 236.653 209.96 236.653C211.103 236.653 212.23 236.923 213.25 237.44C215.07 238.49 215.07 240.19 213.25 241.24Z" fill="#455A64"/>
<path d="M214.62 134.97H205.31V239.24H214.62V134.97Z" fill="#455A64"/>
<path d="M19.7598 230.71V236.87L143 308.03V301.86L19.7598 230.71Z" fill="#7DA8FF"/>
<path opacity="0.3" d="M19.7598 230.71V236.87L143 308.03V301.86L19.7598 230.71Z" fill="black"/>
<path d="M341.67 187.16L143 301.86V308.03L341.67 193.32V187.16Z" fill="#7DA8FF"/>
<path opacity="0.3" d="M341.67 187.16L143 301.86V308.03L341.67 193.32V187.16Z" fill="white"/>
<path d="M218.43 116.01L19.7598 230.71L143 301.86L341.67 187.16L218.43 116.01Z" fill="#7DA8FF"/>
<path d="M15.5 298.45V358.66C15.5 363.18 18.5 367.66 24.5 371.17C36.5 378.08 55.87 378.08 67.84 371.17C73.84 367.71 76.84 363.17 76.84 358.66V298.45H15.5Z" fill="#37474F"/>
<path d="M46.15 315.88C63.0775 315.88 76.8 307.96 76.8 298.19C76.8 288.42 63.0775 280.5 46.15 280.5C29.2225 280.5 15.5 288.42 15.5 298.19C15.5 307.96 29.2225 315.88 46.15 315.88Z" fill="#455A64"/>
<path d="M67.15 306.52C66.2099 307.293 65.2063 307.985 64.15 308.59C63.95 308.71 63.74 308.83 63.52 308.94C62.1324 309.684 60.6878 310.316 59.2 310.83C58.61 311.03 57.99 311.23 57.37 311.39C55.9534 311.817 54.5103 312.151 53.05 312.39C51.8 312.6 50.52 312.75 49.25 312.84C48.73 312.84 48.25 312.91 47.7 312.92C46.7 312.92 45.7 312.92 44.78 312.92C43.57 312.92 42.36 312.81 41.17 312.67C39.6485 312.504 38.1389 312.244 36.65 311.89C36.05 311.75 35.47 311.61 34.89 311.43C32.5218 310.784 30.244 309.843 28.11 308.63C27.1882 308.101 26.3059 307.506 25.47 306.85C19.66 302.23 19.1 296.1 23.76 291.18C25.036 289.851 26.5019 288.719 28.11 287.82C29.8924 286.802 31.7801 285.98 33.74 285.37C34.11 285.24 34.51 285.12 34.89 285.02C35.9334 284.717 36.9914 284.467 38.06 284.27C39.22 284.05 40.39 283.87 41.59 283.75C45.4072 283.347 49.2612 283.455 53.05 284.07L53.4 284.12C54.7499 284.341 56.0856 284.641 57.4 285.02C59.2227 285.518 60.994 286.187 62.69 287.02C63.2 287.26 63.69 287.53 64.18 287.81C64.9513 288.252 65.696 288.74 66.41 289.27C67.4672 290.057 68.4242 290.971 69.26 291.99C73 296.63 72.33 302.21 67.15 306.52Z" fill="#263238"/>
<path d="M47.0898 220.32V239H56.6698V226.29C56.6698 226.29 53.0998 221.08 47.0898 220.32Z" fill="#7DA8FF"/>
<path opacity="0.3" d="M47.0898 220.32V239H56.6698V226.29C56.6698 226.29 53.0998 221.08 47.0898 220.32Z" fill="white"/>
<path d="M53.0702 225V312.37C51.8202 312.58 50.5401 312.73 49.2701 312.82C48.7501 312.82 48.2702 312.89 47.7202 312.9C46.7202 312.9 45.7202 312.9 44.8002 312.9C43.5902 312.9 42.3802 312.79 41.1902 312.65C39.6687 312.484 38.1591 312.224 36.6702 311.87C36.0702 311.73 35.4902 311.59 34.9102 311.41V225H53.0702Z" fill="#7DA8FF"/>
<path opacity="0.7" d="M53.0702 225V312.37C51.8202 312.58 50.5401 312.73 49.2701 312.82C48.7501 312.82 48.2702 312.89 47.7202 312.9C46.7202 312.9 45.7202 312.9 44.8002 312.9C43.5902 312.9 42.3802 312.79 41.1902 312.65C39.6687 312.484 38.1591 312.224 36.6702 311.87C36.0702 311.73 35.4902 311.59 34.9102 311.41V225H53.0702Z" fill="white"/>
<path d="M57.3902 227.92V311.39C55.9736 311.817 54.5305 312.151 53.0702 312.39C51.8202 312.6 50.5402 312.75 49.2702 312.84C48.7502 312.84 48.2702 312.91 47.7202 312.92V235.09C49.6017 234.811 51.4154 234.188 53.0702 233.25C54.5718 232.419 55.8195 231.195 56.6802 229.71C57.0143 229.157 57.2542 228.552 57.3902 227.92Z" fill="#7DA8FF"/>
<path opacity="0.5" d="M57.3902 227.92V311.39C55.9736 311.817 54.5305 312.151 53.0702 312.39C51.8202 312.6 50.5402 312.75 49.2702 312.84C48.7502 312.84 48.2702 312.91 47.7202 312.92V235.09C49.6017 234.811 51.4154 234.188 53.0702 233.25C54.5718 232.419 55.8195 231.195 56.6802 229.71C57.0143 229.157 57.2542 228.552 57.3902 227.92Z" fill="white"/>
<path d="M48.1698 235.46C48.0573 235.456 47.95 235.412 47.8682 235.335C47.7864 235.257 47.7358 235.153 47.7259 235.04C47.7161 234.928 47.7476 234.817 47.8147 234.726C47.8818 234.636 47.9796 234.573 48.0898 234.55C49.7822 234.243 51.4113 233.654 52.9098 232.81C55.2098 231.49 56.4698 229.75 56.4698 227.93C56.4698 226.11 55.2098 224.37 52.9098 223.04C50.1711 221.579 47.1032 220.846 43.9998 220.91C43.9344 220.92 43.8677 220.915 43.8042 220.897C43.7406 220.878 43.6818 220.847 43.6318 220.803C43.5817 220.76 43.5415 220.707 43.514 220.647C43.4864 220.586 43.4722 220.521 43.4722 220.455C43.4722 220.389 43.4864 220.324 43.514 220.263C43.5415 220.203 43.5817 220.15 43.6318 220.107C43.6818 220.063 43.7406 220.032 43.8042 220.013C43.8677 219.995 43.9344 219.99 43.9998 220C47.2677 219.933 50.4978 220.708 53.3798 222.25C55.9698 223.75 57.3798 225.76 57.3798 227.93C57.3798 230.1 55.9498 232.11 53.3798 233.61C51.7884 234.498 50.0622 235.12 48.2698 235.45L48.1698 235.46Z" fill="#7DA8FF"/>
<path opacity="0.5" d="M48.1698 235.46C48.0573 235.456 47.95 235.412 47.8682 235.335C47.7864 235.257 47.7358 235.153 47.7259 235.04C47.7161 234.928 47.7476 234.817 47.8147 234.726C47.8818 234.636 47.9796 234.573 48.0898 234.55C49.7822 234.243 51.4113 233.654 52.9098 232.81C55.2098 231.49 56.4698 229.75 56.4698 227.93C56.4698 226.11 55.2098 224.37 52.9098 223.04C50.1711 221.579 47.1032 220.846 43.9998 220.91C43.9344 220.92 43.8677 220.915 43.8042 220.897C43.7406 220.878 43.6818 220.847 43.6318 220.803C43.5817 220.76 43.5415 220.707 43.514 220.647C43.4864 220.586 43.4722 220.521 43.4722 220.455C43.4722 220.389 43.4864 220.324 43.514 220.263C43.5415 220.203 43.5817 220.15 43.6318 220.107C43.6818 220.063 43.7406 220.032 43.8042 220.013C43.8677 219.995 43.9344 219.99 43.9998 220C47.2677 219.933 50.4978 220.708 53.3798 222.25C55.9698 223.75 57.3798 225.76 57.3798 227.93C57.3798 230.1 55.9498 232.11 53.3798 233.61C51.7884 234.498 50.0622 235.12 48.2698 235.45L48.1698 235.46Z" fill="white"/>
<path d="M50.4102 221.54C53.9602 223.54 53.9602 226.9 50.4102 228.95C48.4211 229.961 46.2214 230.488 43.9902 230.488C41.759 230.488 39.5593 229.961 37.5702 228.95C34.0202 226.95 34.0202 223.58 37.5702 221.54C39.5593 220.529 41.759 220.002 43.9902 220.002C46.2214 220.002 48.4211 220.529 50.4102 221.54Z" fill="#7DA8FF"/>
<path opacity="0.5" d="M50.4102 221.54C53.9602 223.54 53.9602 226.9 50.4102 228.95C48.4211 229.961 46.2214 230.488 43.9902 230.488C41.759 230.488 39.5593 229.961 37.5702 228.95C34.0202 226.95 34.0202 223.58 37.5702 221.54C39.5593 220.529 41.759 220.002 43.9902 220.002C46.2214 220.002 48.4211 220.529 50.4102 221.54Z" fill="white"/>
<path d="M67.2002 252.43L65.2002 266.29L72.2902 267.29L73.6602 257.85C72.282 255.281 69.9692 253.341 67.2002 252.43Z" fill="#7DA8FF"/>
<path opacity="0.3" d="M67.2002 252.43L65.2002 266.29L72.2902 267.29L73.6602 257.85C72.282 255.281 69.9692 253.341 67.2002 252.43Z" fill="white"/>
<path d="M71.1298 256.53L70.2998 262.24L70.2398 262.65V263.02L69.6698 266.93L66.4498 289.24L63.5898 308.94C62.2023 309.684 60.7577 310.316 59.2698 310.83C58.6798 311.03 58.0598 311.23 57.4398 311.39C56.0232 311.817 54.5801 312.151 53.1198 312.39C51.8698 312.6 50.5898 312.75 49.3198 312.84L53.1198 286.52L53.4698 284.12L57.4698 256.68L57.7698 254.62L66.7698 255.93L71.1798 256.57L71.1298 256.53Z" fill="#7DA8FF"/>
<path opacity="0.7" d="M71.1298 256.53L70.2998 262.24L70.2398 262.65V263.02L69.6698 266.93L66.4498 289.24L63.5898 308.94C62.2023 309.684 60.7577 310.316 59.2698 310.83C58.6798 311.03 58.0598 311.23 57.4398 311.39C56.0232 311.817 54.5801 312.151 53.1198 312.39C51.8698 312.6 50.5898 312.75 49.3198 312.84L53.1198 286.52L53.4698 284.12L57.4698 256.68L57.7698 254.62L66.7698 255.93L71.1798 256.57L71.1298 256.53Z" fill="white"/>
<path d="M74.0002 259.17L69.2502 292L67.1502 306.56C66.2101 307.333 65.2066 308.026 64.1502 308.63C63.9502 308.75 63.7402 308.87 63.5202 308.98C62.1326 309.724 60.6881 310.356 59.2002 310.87L62.6802 287L65.6802 266.37L66.1002 263.44C67.5192 263.432 68.9251 263.168 70.2502 262.66C71.4327 262.205 72.4695 261.438 73.2502 260.44C73.567 260.06 73.8203 259.631 74.0002 259.17Z" fill="#7DA8FF"/>
<path opacity="0.5" d="M74.0002 259.17L69.2502 292L67.1502 306.56C66.2101 307.333 65.2066 308.026 64.1502 308.63C63.9502 308.75 63.7402 308.87 63.5202 308.98C62.1326 309.724 60.6881 310.356 59.2002 310.87L62.6802 287L65.6802 266.37L66.1002 263.44C67.5192 263.432 68.9251 263.168 70.2502 262.66C71.4327 262.205 72.4695 261.438 73.2502 260.44C73.567 260.06 73.8203 259.631 74.0002 259.17Z" fill="white"/>
<path d="M66.3798 263.75C66.301 263.74 66.2284 263.703 66.1751 263.644C66.1219 263.585 66.0916 263.509 66.0898 263.43C66.0871 263.385 66.0932 263.341 66.1078 263.298C66.1225 263.256 66.1453 263.217 66.175 263.184C66.2048 263.15 66.2408 263.123 66.2811 263.103C66.3214 263.084 66.3651 263.073 66.4098 263.07C67.6969 263.021 68.9672 262.761 70.1698 262.3C72.0098 261.57 73.1698 260.42 73.3298 259.07C73.4898 257.72 72.7698 256.3 71.2198 255.07C69.3422 253.699 67.1466 252.828 64.8398 252.54C64.7927 252.537 64.7468 252.524 64.7049 252.503C64.6629 252.481 64.626 252.451 64.5963 252.415C64.5666 252.378 64.5449 252.336 64.5325 252.29C64.5201 252.245 64.5173 252.197 64.5242 252.15C64.5312 252.104 64.5478 252.059 64.5729 252.019C64.5981 251.979 64.6312 251.945 64.6703 251.919C64.7094 251.892 64.7535 251.874 64.7999 251.866C64.8463 251.858 64.8939 251.859 64.9398 251.87C67.3657 252.168 69.6734 253.088 71.6398 254.54C73.3898 255.92 74.2298 257.54 73.9998 259.17C73.7698 260.8 72.4998 262.11 70.4198 262.94C69.1412 263.432 67.7891 263.706 66.4198 263.75H66.3798Z" fill="#7DA8FF"/>
<path opacity="0.5" d="M66.3798 263.75C66.301 263.74 66.2284 263.703 66.1751 263.644C66.1219 263.585 66.0916 263.509 66.0898 263.43C66.0871 263.385 66.0932 263.341 66.1078 263.298C66.1225 263.256 66.1453 263.217 66.175 263.184C66.2048 263.15 66.2408 263.123 66.2811 263.103C66.3214 263.084 66.3651 263.073 66.4098 263.07C67.6969 263.021 68.9672 262.761 70.1698 262.3C72.0098 261.57 73.1698 260.42 73.3298 259.07C73.4898 257.72 72.7698 256.3 71.2198 255.07C69.3422 253.699 67.1466 252.828 64.8398 252.54C64.7927 252.537 64.7468 252.524 64.7049 252.503C64.6629 252.481 64.626 252.451 64.5963 252.415C64.5666 252.378 64.5449 252.336 64.5325 252.29C64.5201 252.245 64.5173 252.197 64.5242 252.15C64.5312 252.104 64.5478 252.059 64.5729 252.019C64.5981 251.979 64.6312 251.945 64.6703 251.919C64.7094 251.892 64.7535 251.874 64.7999 251.866C64.8463 251.858 64.8939 251.859 64.9398 251.87C67.3657 252.168 69.6734 253.088 71.6398 254.54C73.3898 255.92 74.2298 257.54 73.9998 259.17C73.7698 260.8 72.4998 262.11 70.4198 262.94C69.1412 263.432 67.7891 263.706 66.4198 263.75H66.3798Z" fill="white"/>
<path d="M69.5301 253.69C71.9301 255.59 71.5301 258.04 68.7301 259.18C67.1496 259.713 65.4657 259.866 63.8151 259.626C62.1645 259.386 60.5936 258.761 59.2301 257.8C56.8301 255.91 57.2301 253.45 60.0201 252.32C61.6014 251.785 63.2865 251.63 64.9389 251.868C66.5912 252.106 68.1641 252.73 69.5301 253.69Z" fill="#7DA8FF"/>
<path opacity="0.5" d="M69.5301 253.69C71.9301 255.59 71.5301 258.04 68.7301 259.18C67.1496 259.713 65.4657 259.866 63.8151 259.626C62.1645 259.386 60.5936 258.761 59.2301 257.8C56.8301 255.91 57.2301 253.45 60.0201 252.32C61.6014 251.785 63.2865 251.63 64.9389 251.868C66.5912 252.106 68.1641 252.73 69.5301 253.69Z" fill="white"/>
<path d="M28.5298 242.32L30.2098 257.66L38.0598 256.8L36.9198 246.35C36.9198 246.35 33.5298 242.4 28.5298 242.32Z" fill="#7DA8FF"/>
<path opacity="0.3" d="M28.5298 242.32L30.2098 257.66L38.0598 256.8L36.9198 246.35C36.9198 246.35 33.5298 242.4 28.5298 242.32Z" fill="white"/>
<path d="M41.19 312.63C39.6686 312.464 38.159 312.204 36.67 311.85C36.07 311.71 35.49 311.57 34.91 311.39C32.5418 310.744 30.264 309.803 28.13 308.59C27.2083 308.061 26.326 307.466 25.49 306.81L23.78 291.14L19 247.23L29 246.14L33.89 245.6L34.58 251.94V252.37V252.8L34.85 255.21L35.05 257.12L38.05 284.23L41.19 312.63Z" fill="#7DA8FF"/>
<path opacity="0.7" d="M41.19 312.63C39.6686 312.464 38.159 312.204 36.67 311.85C36.07 311.71 35.49 311.57 34.91 311.39C32.5418 310.744 30.264 309.803 28.13 308.59C27.2083 308.061 26.326 307.466 25.49 306.81L23.78 291.14L19 247.23L29 246.14L33.89 245.6L34.58 251.94V252.37V252.8L34.85 255.21L35.05 257.12L38.05 284.23L41.19 312.63Z" fill="white"/>
<path d="M41.1902 312.63C39.6687 312.464 38.1591 312.204 36.6702 311.85L34.9102 295.78L33.7602 285.33L30.7602 257.61L30.4102 254.36C31.9339 253.967 33.3692 253.288 34.6402 252.36C34.7502 252.28 34.8601 252.21 34.9501 252.13C35.9594 251.337 36.7565 250.306 37.2701 249.13C37.4929 248.643 37.6347 248.123 37.6902 247.59L41.6902 283.67L44.8801 312.84C43.5901 312.85 42.3802 312.77 41.1902 312.63Z" fill="#7DA8FF"/>
<path opacity="0.5" d="M41.1902 312.63C39.6687 312.464 38.1591 312.204 36.6702 311.85L34.9102 295.78L33.7602 285.33L30.7602 257.61L30.4102 254.36C31.9339 253.967 33.3692 253.288 34.6402 252.36C34.7502 252.28 34.8601 252.21 34.9501 252.13C35.9594 251.337 36.7565 250.306 37.2701 249.13C37.4929 248.643 37.6347 248.123 37.6902 247.59L41.6902 283.67L44.8801 312.84C43.5901 312.85 42.3802 312.77 41.1902 312.63Z" fill="white"/>
<path d="M30.7799 254.63C30.6923 254.638 30.6045 254.616 30.5316 254.567C30.4586 254.517 30.405 254.444 30.3799 254.36C30.3644 254.313 30.3583 254.264 30.362 254.215C30.3657 254.166 30.3791 254.118 30.4014 254.075C30.4238 254.031 30.4546 253.992 30.4921 253.96C30.5296 253.929 30.5731 253.905 30.6199 253.89C31.9816 253.487 33.2661 252.858 34.4199 252.03C36.1899 250.74 37.0699 249.21 36.8999 247.71C36.7299 246.21 35.5499 244.91 33.5499 244.03C31.1699 243.073 28.5833 242.746 26.0399 243.08C25.9911 243.087 25.9413 243.084 25.8937 243.071C25.8461 243.058 25.8017 243.035 25.7632 243.004C25.7248 242.973 25.6931 242.935 25.6702 242.891C25.6473 242.847 25.6336 242.799 25.6299 242.75C25.6212 242.651 25.6504 242.553 25.7118 242.475C25.7731 242.397 25.8618 242.345 25.9599 242.33C28.6322 241.982 31.349 242.326 33.8499 243.33C36.1099 244.33 37.4599 245.84 37.6499 247.62C37.8399 249.4 36.8599 251.17 34.8699 252.62C33.6563 253.503 32.3046 254.179 30.8699 254.62L30.7799 254.63Z" fill="#7DA8FF"/>
<path opacity="0.5" d="M30.7799 254.63C30.6923 254.638 30.6045 254.616 30.5316 254.567C30.4586 254.517 30.405 254.444 30.3799 254.36C30.3644 254.313 30.3583 254.264 30.362 254.215C30.3657 254.166 30.3791 254.118 30.4014 254.075C30.4238 254.031 30.4546 253.992 30.4921 253.96C30.5296 253.929 30.5731 253.905 30.6199 253.89C31.9816 253.487 33.2661 252.858 34.4199 252.03C36.1899 250.74 37.0699 249.21 36.8999 247.71C36.7299 246.21 35.5499 244.91 33.5499 244.03C31.1699 243.073 28.5833 242.746 26.0399 243.08C25.9911 243.087 25.9413 243.084 25.8937 243.071C25.8461 243.058 25.8017 243.035 25.7632 243.004C25.7248 242.973 25.6931 242.935 25.6702 242.891C25.6473 242.847 25.6336 242.799 25.6299 242.75C25.6212 242.651 25.6504 242.553 25.7118 242.475C25.7731 242.397 25.8618 242.345 25.9599 242.33C28.6322 241.982 31.349 242.326 33.8499 243.33C36.1099 244.33 37.4599 245.84 37.6499 247.62C37.8399 249.4 36.8599 251.17 34.8699 252.62C33.6563 253.503 32.3046 254.179 30.8699 254.62L30.7799 254.63Z" fill="white"/>
<path d="M31.3599 243C34.4499 244.36 34.7499 247.08 32.0299 249.07C30.4888 250.076 28.7321 250.705 26.9025 250.905C25.0728 251.105 23.2218 250.87 21.4999 250.22C18.4099 248.87 18.1199 246.14 20.8399 244.15C22.379 243.144 24.1341 242.515 25.9621 242.315C27.7902 242.115 29.6396 242.35 31.3599 243Z" fill="#7DA8FF"/>
<path opacity="0.5" d="M31.3599 243C34.4499 244.36 34.7499 247.08 32.0299 249.07C30.4888 250.076 28.7321 250.705 26.9025 250.905C25.0728 251.105 23.2218 250.87 21.4999 250.22C18.4099 248.87 18.1199 246.14 20.8399 244.15C22.379 243.144 24.1341 242.515 25.9621 242.315C27.7902 242.115 29.6396 242.35 31.3599 243Z" fill="white"/>
<path d="M272.57 178.37L260.57 185.28C260.095 185.496 259.576 185.596 259.055 185.574C258.533 185.551 258.025 185.406 257.57 185.15L216.81 161.62C215.92 161.11 215.81 160.34 216.6 159.89L228.6 152.98C229.075 152.765 229.594 152.665 230.116 152.688C230.637 152.71 231.145 152.855 231.6 153.11L272.35 176.64C273.24 177.15 273.33 177.92 272.57 178.37Z" fill="#263238"/>
<path d="M237.8 159.88L228.58 165.2L220.98 160.82L230.2 155.5L237.8 159.88Z" fill="#7DA8FF"/>
<path d="M247.81 165.66L238.59 170.98L231 166.6L240.21 161.28L247.81 165.66Z" fill="#7DA8FF"/>
<path d="M257.82 171.44L248.61 176.77L241.01 172.38L250.23 167.06L257.82 171.44Z" fill="#7DA8FF"/>
<path d="M267.84 177.23L258.62 182.55L251.03 178.16L260.24 172.84L267.84 177.23Z" fill="#7DA8FF"/>
<path opacity="0.4" d="M237.8 159.88L228.58 165.2L220.98 160.82L230.2 155.5L237.8 159.88Z" fill="black"/>
<path opacity="0.5" d="M247.81 165.66L238.59 170.98L231 166.6L240.21 161.28L247.81 165.66Z" fill="black"/>
<path opacity="0.6" d="M257.82 171.44L248.61 176.77L241.01 172.38L250.23 167.06L257.82 171.44Z" fill="black"/>
<path opacity="0.8" d="M267.84 177.23L258.62 182.55L251.03 178.16L260.24 172.84L267.84 177.23Z" fill="black"/>
<path d="M274.89 165.67L264.74 175.05C264.318 175.369 263.826 175.585 263.305 175.679C262.784 175.772 262.248 175.742 261.74 175.59L216.8 161.59C215.8 161.29 215.56 160.59 216.21 159.95L226.36 150.57C226.782 150.249 227.274 150.033 227.795 149.939C228.317 149.845 228.853 149.876 229.36 150.03L274.3 164.03C275.27 164.33 275.54 165.06 274.89 165.67Z" fill="#37474F"/>
<path d="M236.89 155.3L229.08 162.53L220.7 159.92L228.52 152.7L236.89 155.3Z" fill="#7DA8FF"/>
<path d="M247.94 158.74L240.12 165.96L231.75 163.35L239.56 156.13L247.94 158.74Z" fill="#7DA8FF"/>
<path d="M258.98 162.17L251.17 169.39L242.79 166.78L250.61 159.56L258.98 162.17Z" fill="#7DA8FF"/>
<path d="M270.02 165.6L262.21 172.82L253.83 170.22L261.65 162.99L270.02 165.6Z" fill="#7DA8FF"/>
<path opacity="0.1" d="M236.89 155.3L229.08 162.53L220.7 159.92L228.52 152.7L236.89 155.3Z" fill="white"/>
<path opacity="0.1" d="M258.98 162.17L251.17 169.39L242.79 166.78L250.61 159.56L258.98 162.17Z" fill="black"/>
<path opacity="0.2" d="M270.02 165.6L262.21 172.82L253.83 170.22L261.65 162.99L270.02 165.6Z" fill="black"/>
<path d="M274.48 153.64L266.48 164.91C266.138 165.303 265.708 165.61 265.225 165.806C264.742 166.002 264.22 166.082 263.7 166.04L216.85 161.62C215.85 161.53 215.42 160.86 215.94 160.14L223.94 148.87C224.283 148.477 224.713 148.17 225.196 147.972C225.678 147.774 226.2 147.691 226.72 147.73L273.57 152.15C274.58 152.25 275 152.91 274.48 153.64Z" fill="#455A64"/>
<path d="M235.17 151.31L229 159.99L220.27 159.17L226.43 150.49L235.17 151.31Z" fill="#7DA8FF"/>
<path d="M246.68 152.4L240.52 161.07L231.78 160.25L237.95 151.57L246.68 152.4Z" fill="#7DA8FF"/>
<path d="M258.19 153.48L252.03 162.16L243.3 161.34L249.46 152.66L258.19 153.48Z" fill="#7DA8FF"/>
<path d="M269.7 154.57L263.54 163.25L254.81 162.42L260.97 153.75L269.7 154.57Z" fill="#7DA8FF"/>
<path opacity="0.8" d="M235.17 151.31L229 159.99L220.27 159.17L226.43 150.49L235.17 151.31Z" fill="white"/>
<path opacity="0.6" d="M246.68 152.4L240.52 161.07L231.78 160.25L237.95 151.57L246.68 152.4Z" fill="white"/>
<path opacity="0.4" d="M258.19 153.48L252.03 162.16L243.3 161.34L249.46 152.66L258.19 153.48Z" fill="white"/>
<path opacity="0.2" d="M269.7 154.57L263.54 163.25L254.81 162.42L260.97 153.75L269.7 154.57Z" fill="white"/>
<path d="M214.37 164.27C213.49 164.275 212.633 163.99 211.931 163.458C211.23 162.927 210.723 162.179 210.49 161.33C210.348 160.821 210.307 160.288 210.37 159.763C210.434 159.237 210.6 158.73 210.859 158.269C211.119 157.808 211.467 157.402 211.883 157.076C212.299 156.749 212.776 156.508 213.285 156.365C213.795 156.223 214.327 156.182 214.853 156.245C215.378 156.309 215.885 156.475 216.347 156.734C216.808 156.994 217.213 157.342 217.54 157.758C217.866 158.174 218.108 158.651 218.25 159.16L217.47 159.37C217.239 158.547 216.691 157.848 215.946 157.429C215.2 157.01 214.319 156.904 213.495 157.135C212.672 157.366 211.974 157.914 211.554 158.66C211.135 159.405 211.029 160.287 211.26 161.11C211.376 161.52 211.571 161.903 211.834 162.237C212.098 162.572 212.424 162.851 212.796 163.059C213.167 163.267 213.576 163.4 213.999 163.45C214.422 163.5 214.85 163.466 215.26 163.35C215.669 163.236 216.051 163.042 216.384 162.78C216.717 162.517 216.994 162.191 217.2 161.82L217.9 162.22C217.548 162.841 217.037 163.357 216.421 163.717C215.805 164.077 215.104 164.268 214.39 164.27H214.37Z" fill="#E0E0E0"/>
<path d="M157.69 258.5L123.83 278.05L81.1001 253.38L115 233.79C115.441 233.535 115.941 233.4 116.45 233.4C116.959 233.4 117.46 233.535 117.9 233.79L157.66 256.74C157.82 256.823 157.955 256.948 158.05 257.101C158.145 257.254 158.197 257.431 158.2 257.611C158.203 257.792 158.158 257.969 158.068 258.126C157.978 258.282 157.847 258.412 157.69 258.5Z" fill="#7DA8FF"/>
<path opacity="0.7" d="M157.69 258.5L123.83 278.05L81.1001 253.38L115 233.79C115.441 233.535 115.941 233.4 116.45 233.4C116.959 233.4 117.46 233.535 117.9 233.79L157.66 256.74C157.82 256.823 157.955 256.948 158.05 257.101C158.145 257.254 158.197 257.431 158.2 257.611C158.203 257.792 158.158 257.969 158.068 258.126C157.978 258.282 157.847 258.412 157.69 258.5Z" fill="black"/>
<path d="M155.35 257.78L123.83 276L84.0601 253L115.64 234.77C116.051 234.534 116.516 234.41 116.99 234.41C117.464 234.41 117.929 234.534 118.34 234.77L155.34 256.14C155.486 256.221 155.608 256.339 155.694 256.483C155.779 256.626 155.824 256.79 155.826 256.957C155.827 257.124 155.783 257.288 155.699 257.433C155.616 257.578 155.495 257.697 155.35 257.78Z" fill="white"/>
<path d="M123.83 275.98V272.43L155.82 253.96V256.99L123.83 275.98Z" fill="white"/>
<path d="M123.83 275.98V272.43L84.0601 249.46V253.01L123.83 275.98Z" fill="#E0E0E0"/>
<path d="M157.69 252.88L123.83 272.43L81.1001 247.76L115 228.17C115.441 227.914 115.941 227.78 116.45 227.78C116.959 227.78 117.46 227.914 117.9 228.17L157.66 251.17C157.809 251.257 157.932 251.38 158.019 251.528C158.106 251.676 158.154 251.845 158.157 252.017C158.16 252.188 158.118 252.358 158.037 252.509C157.955 252.661 157.836 252.788 157.69 252.88Z" fill="#7DA8FF"/>
<path opacity="0.5" d="M157.69 252.88L123.83 272.43L81.1001 247.76L115 228.17C115.441 227.914 115.941 227.78 116.45 227.78C116.959 227.78 117.46 227.914 117.9 228.17L157.66 251.17C157.809 251.257 157.932 251.38 158.019 251.528C158.106 251.676 158.154 251.845 158.157 252.017C158.16 252.188 158.118 252.358 158.037 252.509C157.955 252.661 157.836 252.788 157.69 252.88Z" fill="black"/>
<path d="M119.42 275.5C119.32 275.547 119.211 275.571 119.1 275.571C118.99 275.571 118.88 275.547 118.78 275.5C118.658 275.437 118.555 275.34 118.485 275.222C118.414 275.104 118.378 274.968 118.38 274.83V271.62C118.38 270.892 118.568 270.177 118.928 269.544C119.287 268.911 119.805 268.383 120.43 268.01L120.55 267.94C120.607 267.903 120.673 267.884 120.74 267.884C120.807 267.884 120.873 267.903 120.93 267.94C120.989 267.972 121.039 268.02 121.072 268.078C121.106 268.136 121.122 268.203 121.12 268.27C121.12 268.448 121.191 268.618 121.316 268.744C121.442 268.869 121.612 268.94 121.79 268.94C121.968 268.94 122.138 268.869 122.264 268.744C122.389 268.618 122.46 268.448 122.46 268.27C122.459 267.967 122.379 267.67 122.227 267.409C122.075 267.147 121.856 266.931 121.593 266.78C121.331 266.63 121.033 266.552 120.73 266.554C120.428 266.555 120.131 266.637 119.87 266.79L119.75 266.87C118.926 267.36 118.243 268.055 117.768 268.887C117.293 269.72 117.042 270.661 117.04 271.62V274.83C117.041 275.21 117.145 275.582 117.341 275.908C117.536 276.233 117.816 276.5 118.15 276.68C118.459 276.839 118.802 276.922 119.15 276.92C119.566 276.924 119.974 276.802 120.32 276.57C120.445 276.479 120.537 276.349 120.58 276.2L119.42 275.5Z" fill="white"/>
<path d="M113.09 271.85C112.977 271.888 112.856 271.898 112.738 271.881C112.62 271.863 112.507 271.818 112.41 271.749C112.312 271.679 112.233 271.588 112.177 271.483C112.122 271.377 112.092 271.259 112.09 271.14V267.93C112.086 267.207 112.268 266.496 112.619 265.864C112.969 265.232 113.475 264.7 114.09 264.32L114.22 264.25C114.278 264.218 114.343 264.201 114.41 264.201C114.476 264.201 114.542 264.218 114.6 264.25C114.657 264.285 114.704 264.333 114.737 264.391C114.77 264.449 114.788 264.514 114.79 264.58C114.778 264.674 114.787 264.77 114.815 264.86C114.843 264.951 114.89 265.035 114.953 265.106C115.016 265.177 115.093 265.234 115.18 265.273C115.266 265.312 115.36 265.332 115.455 265.332C115.55 265.332 115.644 265.312 115.73 265.273C115.817 265.234 115.894 265.177 115.957 265.106C116.02 265.035 116.067 264.951 116.095 264.86C116.123 264.77 116.132 264.674 116.12 264.58C116.12 264.279 116.04 263.983 115.888 263.722C115.736 263.461 115.518 263.246 115.256 263.096C114.995 262.947 114.698 262.87 114.396 262.872C114.095 262.875 113.799 262.957 113.54 263.11L113.42 263.18C112.595 263.671 111.912 264.368 111.437 265.202C110.962 266.037 110.711 266.98 110.71 267.94V271.15C110.71 271.53 110.814 271.903 111.009 272.228C111.205 272.554 111.485 272.821 111.82 273C112.129 273.159 112.472 273.242 112.82 273.24C113.232 273.238 113.635 273.117 113.98 272.89C114.111 272.805 114.204 272.672 114.24 272.52L113.09 271.85Z" fill="white"/>
<path d="M106.76 268.2C106.662 268.246 106.554 268.27 106.445 268.27C106.336 268.27 106.229 268.246 106.13 268.2C106.006 268.135 105.902 268.038 105.829 267.918C105.757 267.798 105.719 267.66 105.72 267.52V264.31C105.723 263.583 105.914 262.869 106.275 262.238C106.636 261.607 107.155 261.08 107.78 260.71L107.9 260.64C107.957 260.605 108.023 260.586 108.09 260.586C108.157 260.586 108.223 260.605 108.28 260.64C108.338 260.673 108.386 260.722 108.419 260.779C108.453 260.837 108.47 260.903 108.47 260.97C108.459 261.064 108.467 261.16 108.495 261.25C108.523 261.341 108.57 261.425 108.633 261.496C108.696 261.567 108.773 261.624 108.86 261.663C108.946 261.702 109.04 261.722 109.135 261.722C109.23 261.722 109.324 261.702 109.41 261.663C109.497 261.624 109.574 261.567 109.637 261.496C109.7 261.425 109.747 261.341 109.775 261.25C109.803 261.16 109.812 261.064 109.8 260.97C109.8 260.669 109.72 260.373 109.568 260.112C109.416 259.851 109.199 259.636 108.937 259.486C108.675 259.337 108.378 259.26 108.077 259.262C107.775 259.265 107.48 259.347 107.22 259.5L107.1 259.57C106.277 260.06 105.594 260.756 105.119 261.588C104.645 262.42 104.393 263.362 104.39 264.32V267.53C104.389 267.91 104.492 268.283 104.688 268.609C104.884 268.935 105.164 269.202 105.5 269.38C105.807 269.547 106.151 269.633 106.5 269.63C106.913 269.63 107.316 269.508 107.66 269.28C107.789 269.192 107.881 269.061 107.92 268.91L106.76 268.2Z" fill="white"/>
<path d="M100.44 264.54C100.34 264.587 100.231 264.612 100.12 264.612C100.01 264.612 99.9003 264.587 99.8003 264.54C99.6785 264.473 99.577 264.375 99.5066 264.255C99.4361 264.135 99.3994 263.999 99.4003 263.86V260.65C99.3955 259.929 99.5771 259.218 99.9274 258.587C100.278 257.957 100.785 257.427 101.4 257.05L101.52 256.97C101.578 256.937 101.644 256.919 101.71 256.919C101.777 256.919 101.842 256.937 101.9 256.97C101.96 257.002 102.009 257.049 102.042 257.108C102.076 257.166 102.093 257.233 102.09 257.3C102.09 257.478 102.161 257.648 102.287 257.774C102.412 257.899 102.583 257.97 102.76 257.97C102.848 257.97 102.934 257.953 103.015 257.919C103.096 257.885 103.169 257.836 103.231 257.773C103.292 257.711 103.34 257.637 103.373 257.556C103.406 257.474 103.422 257.387 103.42 257.3C103.423 256.997 103.345 256.699 103.194 256.437C103.043 256.175 102.825 255.957 102.562 255.807C102.299 255.658 102.001 255.581 101.698 255.585C101.395 255.589 101.099 255.673 100.84 255.83L100.72 255.9C99.8969 256.39 99.2145 257.086 98.7396 257.918C98.2647 258.75 98.0134 259.692 98.0103 260.65V263.86C98.0095 264.24 98.1125 264.613 98.3081 264.939C98.5037 265.265 98.7845 265.532 99.1203 265.71C99.4269 265.877 99.7711 265.963 100.12 265.96C100.536 265.959 100.943 265.838 101.29 265.61C101.413 265.517 101.504 265.387 101.55 265.24L100.44 264.54Z" fill="white"/>
<path d="M94.1103 260.89C94.0095 260.935 93.9005 260.958 93.7902 260.958C93.68 260.958 93.571 260.935 93.4703 260.89C93.3485 260.823 93.247 260.725 93.1766 260.605C93.1061 260.485 93.0694 260.349 93.0703 260.21V257C93.0728 256.273 93.2628 255.559 93.6219 254.926C93.981 254.294 94.4971 253.765 95.1202 253.39L95.2503 253.32C95.3081 253.287 95.3737 253.269 95.4405 253.269C95.5073 253.269 95.5729 253.287 95.6307 253.32C95.6884 253.354 95.7364 253.402 95.7697 253.46C95.803 253.518 95.8204 253.583 95.8203 253.65C95.8402 253.812 95.9188 253.962 96.0413 254.07C96.1638 254.179 96.3217 254.238 96.4853 254.238C96.6488 254.238 96.8067 254.179 96.9292 254.07C97.0517 253.962 97.1303 253.812 97.1502 253.65C97.1524 253.348 97.0738 253.05 96.9226 252.788C96.7715 252.526 96.5532 252.309 96.2902 252.16C96.0302 252.005 95.733 251.923 95.4302 251.923C95.1275 251.923 94.8304 252.005 94.5703 252.16L94.4502 252.23C93.6269 252.72 92.9445 253.416 92.4696 254.248C91.9947 255.08 91.7434 256.022 91.7403 256.98V260.19C91.7384 260.57 91.8409 260.944 92.0366 261.27C92.2324 261.596 92.5138 261.863 92.8503 262.04C93.1842 262.221 93.5615 262.306 93.9407 262.287C94.3199 262.267 94.6864 262.144 95.0003 261.93C95.1284 261.846 95.221 261.718 95.2602 261.57L94.1103 260.89Z" fill="white"/>
<path d="M87.7802 257.24C87.6669 257.276 87.5469 257.284 87.4296 257.266C87.3123 257.247 87.2009 257.202 87.104 257.133C87.0072 257.064 86.9276 256.974 86.8714 256.87C86.8152 256.765 86.784 256.649 86.7802 256.53V253.32C86.7819 252.591 86.9726 251.876 87.3336 251.243C87.6947 250.61 88.2138 250.082 88.8402 249.71L88.9602 249.64C89.0172 249.605 89.083 249.586 89.1502 249.586C89.2173 249.586 89.2832 249.605 89.3402 249.64C89.3995 249.672 89.4488 249.72 89.4824 249.778C89.516 249.836 89.5325 249.903 89.5302 249.97C89.5501 250.132 89.6288 250.282 89.7513 250.39C89.8738 250.499 90.0317 250.558 90.1952 250.558C90.3588 250.558 90.5166 250.499 90.6391 250.39C90.7616 250.282 90.8403 250.132 90.8602 249.97C90.8634 249.667 90.7853 249.37 90.634 249.107C90.4827 248.845 90.2638 248.629 90.0002 248.48C89.7391 248.328 89.4423 248.248 89.1402 248.248C88.8381 248.248 88.5413 248.328 88.2802 248.48L88.1602 248.56C87.3368 249.05 86.6545 249.746 86.1796 250.578C85.7046 251.411 85.4534 252.352 85.4502 253.31V256.52C85.4516 256.9 85.5555 257.272 85.7509 257.598C85.9462 257.923 86.2258 258.19 86.5602 258.37C86.8686 258.532 87.2116 258.618 87.5602 258.62C87.9748 258.623 88.3802 258.497 88.7202 258.26C88.8483 258.176 88.9409 258.048 88.9802 257.9L87.7802 257.24Z" fill="white"/>
<path d="M162.06 244.04L125.45 265.18L77.8101 237.68L114.42 216.54L162.06 244.04Z" fill="#E6E6E6"/>
<path d="M164.16 243.35L125.91 261.35L80.75 229.95L119 211.96L164.16 243.35Z" fill="#FAFAFA"/>
<path d="M115.41 230.9C113.955 232.324 112.97 234.159 112.585 236.159C112.201 238.158 112.437 240.228 113.26 242.09C114.97 246.09 119.26 248.35 123.44 248.49C125.591 248.578 127.723 248.063 129.596 247.002C131.469 245.942 133.009 244.379 134.04 242.49C135.036 240.589 135.245 238.373 134.62 236.32C133.922 234.235 132.564 232.434 130.75 231.19C128.349 229.623 125.537 228.802 122.67 228.83C120.24 228.78 117.31 229 115.67 231C115.34 231.39 115.91 232 116.24 231.57C117.62 229.92 119.92 229.67 121.94 229.64C124.351 229.541 126.75 230.017 128.94 231.03C132.61 232.85 135.22 236.93 133.82 241.03C133.092 242.88 131.85 244.482 130.242 245.65C128.633 246.817 126.724 247.501 124.74 247.62C122.788 247.803 120.822 247.462 119.046 246.63C117.27 245.798 115.749 244.507 114.64 242.89C113.539 241.114 113.074 239.017 113.321 236.942C113.568 234.867 114.513 232.938 116 231.47C116.38 231.13 115.81 230.56 115.43 230.9H115.41Z" fill="#7DA8FF"/>
<path d="M121.05 242.75C121.985 243.024 122.969 243.09 123.932 242.945C124.896 242.8 125.817 242.447 126.63 241.91C127.412 241.373 128.042 240.644 128.461 239.793C128.879 238.942 129.072 237.997 129.02 237.05C128.968 235.977 128.571 234.95 127.89 234.12C127.56 233.72 126.99 234.29 127.32 234.69C127.938 235.523 128.256 236.541 128.221 237.578C128.187 238.615 127.802 239.61 127.13 240.4C126.395 241.183 125.456 241.745 124.419 242.024C123.383 242.303 122.288 242.288 121.26 241.98C121.16 241.96 121.057 241.979 120.971 242.032C120.885 242.085 120.822 242.169 120.795 242.267C120.769 242.365 120.78 242.469 120.827 242.559C120.875 242.648 120.954 242.717 121.05 242.75Z" fill="#7DA8FF"/>
<path d="M113.33 244.68C112.17 244.439 111.076 243.95 110.123 243.245C109.17 242.541 108.381 241.639 107.81 240.6C107.38 239.76 107.05 238.46 107.73 237.6C108.73 236.44 110.29 237.43 110.92 238.39C111.246 238.816 111.465 239.313 111.56 239.84C111.56 240.68 110.24 239.47 109.98 239.22C109.117 238.373 108.514 237.298 108.24 236.12C107.74 233.89 108.73 231.12 111.24 230.76C112.24 230.64 113.6 231 113.91 232.1C114.07 232.68 113.77 233.35 113.07 232.94C112.824 232.757 112.618 232.526 112.463 232.262C112.309 231.997 112.209 231.704 112.17 231.4C112.057 230.87 112.05 230.322 112.15 229.789C112.251 229.256 112.456 228.749 112.755 228.296C113.054 227.844 113.44 227.455 113.891 227.154C114.342 226.852 114.848 226.644 115.38 226.54C116.462 226.37 117.568 226.62 118.47 227.24C118.81 227.47 119.71 228.17 119.31 228.62C118.71 229.27 118.07 228.21 118 227.71C117.978 227.14 118.141 226.578 118.466 226.109C118.791 225.64 119.259 225.29 119.8 225.11C120.407 224.927 121.047 224.887 121.672 224.993C122.296 225.099 122.888 225.348 123.4 225.72C124.039 226.088 124.594 226.585 125.03 227.18C125.52 227.99 124.52 228.5 123.92 227.97C122.75 226.97 124 225.54 125.13 225.32C126.61 225.03 128.13 225.99 129.28 226.79C130.492 227.636 131.562 228.669 132.45 229.85C132.76 230.26 133.45 229.85 133.15 229.44C131.991 227.898 130.549 226.592 128.9 225.59C127.42 224.7 125.49 223.94 123.9 224.95C123.601 225.119 123.344 225.352 123.147 225.633C122.95 225.914 122.818 226.236 122.762 226.574C122.705 226.913 122.725 227.259 122.82 227.589C122.915 227.919 123.082 228.223 123.31 228.48C124.26 229.48 126.38 228.87 125.99 227.29C125.679 226.521 125.128 225.872 124.42 225.44C123.681 224.851 122.82 224.434 121.9 224.22C121.123 224.031 120.308 224.083 119.561 224.369C118.814 224.655 118.172 225.161 117.72 225.82C116.97 226.94 116.95 229.1 118.54 229.55C118.842 229.63 119.162 229.608 119.45 229.487C119.737 229.365 119.977 229.152 120.13 228.88C120.49 228.16 119.96 227.45 119.45 226.98C118.883 226.46 118.201 226.081 117.459 225.876C116.717 225.671 115.937 225.645 115.184 225.8C114.43 225.956 113.724 226.288 113.123 226.769C112.523 227.251 112.045 227.868 111.73 228.57C111.402 229.28 111.259 230.061 111.315 230.841C111.371 231.621 111.624 232.374 112.05 233.03C112.245 233.347 112.538 233.592 112.885 233.727C113.231 233.862 113.612 233.881 113.97 233.78C114.232 233.667 114.453 233.475 114.601 233.232C114.75 232.988 114.82 232.705 114.8 232.42C114.8 230.86 113.19 229.97 111.8 229.94C111.008 229.928 110.228 230.136 109.548 230.542C108.868 230.949 108.315 231.537 107.95 232.24C107.567 233.013 107.352 233.858 107.319 234.72C107.286 235.582 107.437 236.441 107.76 237.24C108.059 238.017 108.489 238.738 109.03 239.37C109.55 240.063 110.238 240.61 111.03 240.96C111.184 241.011 111.349 241.023 111.508 240.996C111.668 240.969 111.819 240.903 111.948 240.805C112.077 240.706 112.18 240.578 112.249 240.431C112.317 240.284 112.348 240.122 112.34 239.96C112.241 239.148 111.919 238.38 111.41 237.74C110.49 236.48 108.59 235.67 107.28 236.86C106.17 237.86 106.43 239.59 107 240.8C107.812 242.379 109.09 243.671 110.66 244.5C111.422 244.91 112.236 245.213 113.08 245.4C113.58 245.51 113.8 244.73 113.29 244.62L113.33 244.68Z" fill="#7DA8FF"/>
<path d="M118.71 238C118.683 238.051 118.649 238.098 118.61 238.14C118.68 238.09 118.61 238.14 118.61 238.14L118.55 238.2C118.518 238.238 118.481 238.272 118.44 238.3C118.44 238.3 118.37 238.38 118.44 238.3L118.34 238.36L118.2 238.45H118.14C118.087 238.477 118.029 238.494 117.97 238.5H117.79C117.79 238.5 117.89 238.5 117.79 238.5H117.46C117.46 238.5 117.54 238.5 117.46 238.5H117.29C117.29 238.5 117.23 238.5 117.21 238.5C117.19 238.5 117.21 238.5 117.21 238.5L117.09 238.42L117.03 238.37V238.32C116.96 238.24 117.03 238.37 117.03 238.32L116.96 238.22V238.15C116.96 238.15 116.96 238.05 116.96 238.01C116.956 237.964 116.956 237.917 116.96 237.87C116.96 237.96 116.96 237.92 116.96 237.87V237.67C116.96 237.67 116.96 237.62 116.96 237.6C116.96 237.58 116.96 237.66 116.96 237.6C116.955 237.543 116.955 237.487 116.96 237.43C116.96 237.43 116.96 237.38 116.96 237.43L117.02 237.31V237.25C117.02 237.2 117.07 237.25 117.02 237.25C116.97 237.25 117.09 237.18 117.12 237.15H117.17C117.12 237.22 117.12 237.15 117.17 237.15L117.29 237.08C117.29 237.08 117.19 237.08 117.29 237.08H117.37H117.47H117.63C117.73 237.08 117.55 237.08 117.63 237.08L117.86 237.15C117.96 237.15 117.79 237.15 117.86 237.15L117.98 237.22L118.16 237.33C118.16 237.33 118.26 237.41 118.16 237.33L118.27 237.43L118.43 237.58L118.61 237.77L118.67 237.85V237.9C118.726 237.99 118.814 238.055 118.916 238.083C119.018 238.11 119.126 238.099 119.22 238.05C119.266 238.023 119.305 237.988 119.337 237.946C119.369 237.903 119.392 237.855 119.405 237.804C119.418 237.753 119.42 237.7 119.413 237.648C119.405 237.595 119.387 237.545 119.36 237.5C118.983 236.88 118.375 236.434 117.67 236.26C117.366 236.204 117.052 236.249 116.776 236.388C116.5 236.527 116.277 236.753 116.14 237.03C116.017 237.279 115.953 237.552 115.953 237.83C115.953 238.108 116.017 238.381 116.14 238.63C116.289 238.887 116.506 239.098 116.767 239.239C117.029 239.38 117.324 239.446 117.62 239.43C117.966 239.419 118.303 239.321 118.602 239.147C118.9 238.972 119.151 238.726 119.33 238.43C119.361 238.385 119.383 238.333 119.394 238.279C119.404 238.225 119.403 238.169 119.391 238.115C119.379 238.062 119.356 238.011 119.323 237.966C119.291 237.922 119.249 237.885 119.201 237.857C119.154 237.829 119.101 237.812 119.046 237.806C118.991 237.799 118.936 237.805 118.883 237.821C118.83 237.837 118.781 237.864 118.74 237.9C118.698 237.936 118.664 237.98 118.64 238.03L118.71 238Z" fill="#7DA8FF"/>
<path d="M120.68 233.48C120.708 233.788 120.828 234.081 121.024 234.32C121.22 234.559 121.483 234.733 121.78 234.82C122.069 234.921 122.382 234.925 122.673 234.831C122.963 234.737 123.215 234.55 123.39 234.3C123.53 234.053 123.604 233.774 123.604 233.49C123.604 233.206 123.53 232.927 123.39 232.68C123.246 232.41 123.013 232.199 122.73 232.082C122.447 231.966 122.133 231.951 121.84 232.04C121.49 232.146 121.184 232.364 120.97 232.66C120.762 232.949 120.676 233.308 120.73 233.66C120.763 233.761 120.832 233.847 120.925 233.899C121.018 233.951 121.127 233.965 121.23 233.94C121.33 233.906 121.414 233.836 121.466 233.743C121.517 233.651 121.533 233.543 121.51 233.44C121.51 233.44 121.51 233.53 121.51 233.49V233.38C121.514 233.354 121.514 233.327 121.51 233.3C121.515 233.274 121.515 233.247 121.51 233.22C121.51 233.22 121.51 233.12 121.59 233.08C121.67 233.04 121.65 232.99 121.59 233.08C121.53 233.17 121.59 233.08 121.59 233.08L121.71 232.96C121.71 232.96 121.76 232.96 121.78 232.96L121.92 232.88H122H122.07C122.13 232.88 122.07 232.88 122.07 232.88C122.12 232.885 122.17 232.885 122.22 232.88C122.29 232.88 122.22 232.88 122.22 232.88H122.3H122.38C122.45 232.88 122.31 232.88 122.38 232.88C122.42 232.909 122.464 232.933 122.51 232.95C122.44 232.95 122.45 232.95 122.51 232.95V233V233.05C122.537 233.088 122.561 233.128 122.58 233.17C122.58 233.17 122.58 233.25 122.58 233.17C122.58 233.09 122.58 233.17 122.58 233.17C122.585 233.217 122.585 233.263 122.58 233.31C122.576 233.33 122.576 233.35 122.58 233.37C122.58 233.26 122.58 233.37 122.58 233.37V233.58C122.58 233.65 122.58 233.48 122.58 233.58V233.71C122.577 233.733 122.577 233.757 122.58 233.78C122.58 233.86 122.58 233.72 122.58 233.78C122.563 233.826 122.539 233.87 122.51 233.91V233.96C122.51 233.96 122.57 233.9 122.51 233.96V234.01C122.51 234.01 122.43 234.07 122.51 234.01C122.59 233.95 122.51 234.01 122.51 234.01H122.43H122.36H122.3H122.25C122.25 234.01 122.35 234.01 122.3 234.01H122.08H121.92C121.894 234.005 121.867 234.005 121.84 234.01L121.7 233.92C121.62 233.87 121.7 233.92 121.7 233.92L121.63 233.86L121.57 233.8C121.57 233.8 121.5 233.71 121.57 233.8C121.64 233.89 121.57 233.8 121.57 233.8L121.52 233.72C121.52 233.67 121.52 233.72 121.52 233.72C121.52 233.72 121.52 233.72 121.52 233.64C121.515 233.614 121.515 233.586 121.52 233.56C121.52 233.56 121.52 233.5 121.52 233.56C121.52 233.62 121.52 233.56 121.52 233.56C121.515 233.454 121.47 233.354 121.394 233.279C121.318 233.205 121.216 233.162 121.11 233.16C121.005 233.163 120.905 233.206 120.83 233.28C120.756 233.354 120.713 233.455 120.71 233.56L120.68 233.48Z" fill="#7DA8FF"/>
<path d="M181.91 194.74L165.69 204C164.429 204.721 163.002 205.1 161.55 205.1C160.098 205.1 158.671 204.721 157.41 204L147.01 198L145.83 197.32C144.6 196.61 143.578 195.59 142.866 194.362C142.154 193.134 141.776 191.74 141.77 190.32V160.3L166.12 146.44V177C166.12 178.228 166.444 179.435 167.058 180.499C167.673 181.562 168.556 182.446 169.62 183.06L181.93 190.17C182.335 190.399 182.671 190.733 182.905 191.135C183.138 191.538 183.26 191.995 183.258 192.461C183.256 192.926 183.13 193.383 182.893 193.783C182.656 194.184 182.317 194.514 181.91 194.74Z" fill="#E0E0E0"/>
<path d="M162.22 205C163.441 204.906 164.625 204.544 165.69 203.94L181.91 194.7C182.311 194.471 182.645 194.14 182.877 193.74C183.109 193.341 183.231 192.887 183.231 192.425C183.231 191.963 183.109 191.509 182.877 191.11C182.645 190.71 182.311 190.379 181.91 190.15L173.5 185.3H162.2L162.22 205Z" fill="#E6E6E6"/>
<path d="M181.62 188.18L182.07 188.54C182.434 188.83 182.728 189.198 182.931 189.617C183.133 190.036 183.239 190.495 183.24 190.96V192.47H181.61L181.62 188.18Z" fill="#E6E6E6"/>
<path d="M168 148.76V176.26C167.999 177.452 168.311 178.622 168.906 179.655C169.502 180.687 170.358 181.544 171.39 182.14L181.63 188.14C182.019 188.362 182.342 188.683 182.566 189.07C182.791 189.458 182.909 189.897 182.909 190.345C182.909 190.793 182.791 191.232 182.566 191.62C182.342 192.007 182.019 192.328 181.63 192.55L180.47 193.21L165.92 201.49C164.702 202.186 163.323 202.553 161.92 202.553C160.517 202.553 159.138 202.186 157.92 201.49L147.84 195.54C146.809 194.946 145.953 194.09 145.358 193.06C144.762 192.029 144.449 190.86 144.45 189.67V162.17L168 148.76Z" fill="#F0F0F0"/>
<path d="M168 176.26V148.76L144.43 162.17V189.68C144.429 190.87 144.742 192.039 145.338 193.07C145.933 194.1 146.789 194.956 147.82 195.55L171 181.92C170.072 181.297 169.313 180.454 168.79 179.467C168.266 178.479 167.995 177.378 168 176.26Z" fill="#E6E6E6"/>
<path d="M93.4098 210.16L90.7298 211.71V216.61C89.0112 216.608 87.3252 216.141 85.8498 215.26L85.6398 215.14C85.0253 214.775 84.4912 214.289 84.0701 213.711C83.649 213.134 83.3495 212.477 83.1898 211.78C83.0964 211.479 83.0492 211.165 83.0498 210.85V204.18L93.4098 210.16Z" fill="#E0E0E0"/>
<path d="M209.81 30.2L209.6 30.08C208.125 29.1973 206.439 28.7307 204.72 28.73C204.168 28.7229 203.625 28.8682 203.15 29.15L87.7198 95.53C86.2999 96.3475 85.1205 97.5248 84.3006 98.9434C83.4807 100.362 83.0493 101.972 83.0498 103.61V204.18L93.4098 210.18L203.07 147.18C204.49 146.36 205.669 145.181 206.489 143.761C207.309 142.341 207.74 140.73 207.74 139.09V34.76H212.4C212.401 33.8405 212.162 32.9367 211.708 32.1372C211.254 31.3377 210.6 30.6701 209.81 30.2Z" fill="#37474F"/>
<path d="M84 99.42C83.3454 100.72 83.003 102.155 83 103.61V204.18L93.36 210.18L97.24 207.94V107.63L84 99.42Z" fill="#263238"/>
<path d="M87.71 206.87V213.54C87.71 214.077 87.8514 214.605 88.1199 215.07C88.3885 215.535 88.7748 215.921 89.24 216.19C89.7052 216.459 90.2328 216.6 90.77 216.6C91.3071 216.6 91.8348 216.459 92.3 216.19L207.73 149.81C209.15 148.993 210.329 147.815 211.149 146.397C211.969 144.978 212.4 143.368 212.4 141.73V134.88L87.71 206.87Z" fill="#F0F0F0"/>
<path d="M212.4 34.49C212.399 33.9543 212.257 33.4283 211.989 32.9645C211.721 32.5008 211.336 32.1155 210.872 31.8472C210.409 31.5789 209.883 31.4371 209.347 31.4358C208.811 31.4345 208.285 31.5739 207.82 31.84L92.38 98.22C90.9599 99.0399 89.7807 100.219 88.961 101.639C88.1412 103.059 87.7097 104.67 87.71 106.31V206.87L212.4 134.87" fill="#455A64"/>
<path d="M205.71 39.12C205.183 39.1173 204.663 39.2371 204.19 39.47L95.6801 101.84C94.4282 102.565 93.3888 103.606 92.6657 104.859C91.9427 106.112 91.5614 107.533 91.5601 108.98V194.67C91.5586 195.038 91.6335 195.402 91.7801 195.74C91.9332 196.089 92.1581 196.402 92.4401 196.659C92.7222 196.916 93.055 197.111 93.4172 197.23C93.7793 197.35 94.1625 197.392 94.5421 197.354C94.9216 197.316 95.2889 197.199 95.6201 197.01L204.1 134.64C205.352 133.915 206.391 132.874 207.114 131.621C207.837 130.368 208.219 128.947 208.22 127.5V41.81C208.219 41.1274 207.96 40.4704 207.494 39.9713C207.028 39.4722 206.391 39.168 205.71 39.12Z" fill="#7DA8FF"/>
<path opacity="0.5" d="M205.71 39.12C205.183 39.1173 204.663 39.2371 204.19 39.47L95.6801 101.84C94.4282 102.565 93.3888 103.606 92.6657 104.859C91.9427 106.112 91.5614 107.533 91.5601 108.98V194.67C91.5586 195.038 91.6335 195.402 91.7801 195.74C91.9332 196.089 92.1581 196.402 92.4401 196.659C92.7222 196.916 93.055 197.111 93.4172 197.23C93.7793 197.35 94.1625 197.392 94.5421 197.354C94.9216 197.316 95.2889 197.199 95.6201 197.01L204.1 134.64C205.352 133.915 206.391 132.874 207.114 131.621C207.837 130.368 208.219 128.947 208.22 127.5V41.81C208.219 41.1274 207.96 40.4704 207.494 39.9713C207.028 39.4722 206.391 39.168 205.71 39.12Z" fill="white"/>
<path d="M251.1 212.21L250.25 212.69C249.896 212.322 249.492 212.005 249.05 211.75L215.94 192.64C213.46 191.2 209.7 191.05 207.55 192.29L149.11 226C148.956 226.096 148.809 226.203 148.67 226.32L147.67 225.75V228.22C147.762 228.787 147.993 229.323 148.342 229.78C148.691 230.237 149.147 230.601 149.67 230.84L182.82 250C185.3 251.43 189.06 251.59 191.21 250.35L249.65 216.61C250.051 216.423 250.394 216.133 250.646 215.769C250.897 215.405 251.047 214.981 251.08 214.54L251.1 212.21Z" fill="#263238"/>
<path d="M249.65 214.27L191.21 248C189.06 249.25 185.3 249.09 182.82 247.66L149.71 228.54C147.23 227.11 146.96 224.94 149.11 223.7L207.55 190C209.7 188.75 213.46 188.91 215.94 190.34L249.05 209.46C251.54 210.86 251.81 213 249.65 214.27Z" fill="#37474F"/>
<path d="M242.59 213.09L196.74 239.56C196.093 239.855 195.385 239.993 194.675 239.963C193.964 239.934 193.27 239.737 192.65 239.39L164 222.87C162.79 222.18 162.66 221.12 163.71 220.52L209.6 194C210.248 193.708 210.955 193.571 211.665 193.6C212.375 193.63 213.068 193.825 213.69 194.17L242.3 210.69C243.51 211.43 243.64 212.48 242.59 213.09Z" fill="#455A64"/>
<path d="M172.43 236.88C174.534 236.88 176.24 235.895 176.24 234.68C176.24 233.465 174.534 232.48 172.43 232.48C170.325 232.48 168.62 233.465 168.62 234.68C168.62 235.895 170.325 236.88 172.43 236.88Z" fill="#263238"/>
<path d="M181.16 237.39L177.16 239.69C176.909 239.802 176.636 239.853 176.362 239.841C176.088 239.829 175.82 239.753 175.58 239.62C175.12 239.35 175.07 238.94 175.47 238.71L179.47 236.41C179.721 236.298 179.994 236.247 180.268 236.259C180.542 236.271 180.81 236.347 181.05 236.48C181.51 236.75 181.57 237.16 181.16 237.39Z" fill="#263238"/>
<path d="M184.94 239.57L180.94 241.87C180.689 241.982 180.416 242.033 180.142 242.021C179.867 242.009 179.6 241.933 179.36 241.8C178.9 241.53 178.85 241.13 179.25 240.89L183.25 238.6C183.499 238.485 183.772 238.43 184.047 238.44C184.322 238.451 184.59 238.526 184.83 238.66C185.29 238.93 185.34 239.34 184.94 239.57Z" fill="#263238"/>
<path d="M165.65 228.44L161.65 230.73C161.402 230.846 161.131 230.901 160.857 230.891C160.584 230.881 160.318 230.805 160.08 230.67C159.61 230.4 159.56 229.99 159.96 229.76L163.96 227.46C164.211 227.348 164.484 227.297 164.758 227.309C165.032 227.321 165.3 227.397 165.54 227.53C166 227.8 166.06 228.2 165.65 228.44Z" fill="#263238"/>
<path d="M169.43 230.62L165.43 232.92C165.179 233.032 164.906 233.083 164.632 233.071C164.358 233.059 164.09 232.983 163.85 232.85C163.39 232.58 163.34 232.17 163.74 231.94L167.74 229.64C167.991 229.528 168.264 229.477 168.538 229.489C168.812 229.501 169.08 229.577 169.32 229.71C169.79 230 169.84 230.39 169.43 230.62Z" fill="#263238"/>
<path d="M204.88 172.22L198.1 171.64L191.31 172.2L193.02 181.89V181.99C193.13 182.361 193.315 182.705 193.565 183.001C193.814 183.297 194.122 183.539 194.47 183.71C195.588 184.274 196.822 184.568 198.075 184.568C199.327 184.568 200.562 184.274 201.68 183.71C202.049 183.534 202.373 183.278 202.63 182.959C202.886 182.64 203.067 182.268 203.16 181.87L204.88 172.22Z" fill="#37474F"/>
<path d="M202.91 169.15C205.57 170.69 205.57 173.15 202.91 174.71C201.42 175.469 199.772 175.865 198.1 175.865C196.428 175.865 194.78 175.469 193.29 174.71C190.63 173.18 190.63 170.71 193.29 169.15C194.781 168.395 196.429 168.002 198.1 168.002C199.771 168.002 201.419 168.395 202.91 169.15Z" fill="#455A64"/>
<path d="M198.1 150.63C197.851 150.629 197.605 150.677 197.375 150.771C197.145 150.866 196.936 151.005 196.761 151.181C196.585 151.356 196.446 151.565 196.351 151.795C196.257 152.025 196.209 152.271 196.21 152.52V171.24C196.224 171.406 196.283 171.565 196.38 171.7C196.476 171.836 196.608 171.943 196.76 172.01C197.173 172.222 197.631 172.333 198.095 172.333C198.559 172.333 199.017 172.222 199.43 172.01C199.583 171.943 199.716 171.837 199.815 171.701C199.913 171.566 199.974 171.407 199.99 171.24V152.52C199.99 152.019 199.791 151.538 199.436 151.184C199.082 150.829 198.601 150.63 198.1 150.63Z" fill="#263238"/>
<path d="M147.6 21C147.209 21.0002 146.822 21.089 146.47 21.26L66.3501 67.33C65.4332 67.8722 64.674 68.6447 64.1477 69.5709C63.6215 70.4971 63.3465 71.5448 63.3501 72.61V135.88C63.3482 136.153 63.4063 136.422 63.5201 136.67C63.632 136.928 63.7972 137.16 64.0048 137.35C64.2124 137.54 64.4578 137.684 64.7249 137.773C64.992 137.862 65.2749 137.893 65.5549 137.865C65.835 137.837 66.106 137.75 66.3501 137.61L146.46 91.55C147.386 91.0141 148.156 90.2443 148.691 89.3177C149.226 88.391 149.509 87.3401 149.51 86.27V23C149.511 22.4848 149.312 21.9893 148.957 21.6167C148.601 21.2441 148.115 21.0232 147.6 21Z" fill="#E0E0E0"/>
<path d="M147.56 22C147.813 22.0177 148.05 22.1309 148.222 22.3165C148.395 22.5022 148.491 22.7465 148.49 23V86.27C148.49 87.1695 148.254 88.0533 147.804 88.8326C147.355 89.6119 146.709 90.2593 145.93 90.71L65.8101 136.77C65.6558 136.862 65.4796 136.91 65.3001 136.91C65.0893 136.926 64.879 136.874 64.6993 136.763C64.5196 136.651 64.3799 136.486 64.3001 136.29C64.2487 136.159 64.2216 136.02 64.2201 135.88V72.61C64.2201 71.7104 64.4566 70.8267 64.9059 70.0474C65.3553 69.2681 66.0016 68.6206 66.7801 68.17L147 22.11C147.192 22.0226 147.4 21.9782 147.61 21.98L147.56 22ZM147.61 20.98C147.219 20.9801 146.832 21.069 146.48 21.24L66.3501 67.33C65.4332 67.8722 64.674 68.6447 64.1477 69.5709C63.6215 70.4971 63.3465 71.5447 63.3501 72.61V135.88C63.3482 136.153 63.4063 136.422 63.5201 136.67C63.6741 137.028 63.9293 137.333 64.2544 137.548C64.5795 137.763 64.9604 137.879 65.3501 137.88C65.7009 137.875 66.0447 137.782 66.3501 137.61L146.46 91.55C147.386 91.0141 148.156 90.2443 148.691 89.3176C149.226 88.391 149.509 87.3401 149.51 86.27V23C149.511 22.4929 149.32 22.0043 148.975 21.633C148.629 21.2618 148.156 21.0355 147.65 21L147.61 20.98Z" fill="#E0E0E0"/>
<path d="M64.1802 137.53L66.9902 139.5V134.94L64.1802 137.53Z" fill="#E0E0E0"/>
<path d="M148.5 21.31L151.35 23.3L147.84 25.79L148.5 21.31Z" fill="#E0E0E0"/>
<path d="M150.34 22.94C149.952 22.9362 149.568 23.0254 149.22 23.2L69.0904 69.26C68.1735 69.7998 67.4141 70.5704 66.8878 71.495C66.3614 72.4197 66.0865 73.4661 66.0904 74.53V137.81C66.0912 138.081 66.1455 138.35 66.2504 138.6C66.3632 138.857 66.5291 139.088 66.7371 139.277C66.9451 139.466 67.1907 139.609 67.4577 139.697C67.7247 139.785 68.0072 139.815 68.2868 139.786C68.5664 139.758 68.8368 139.67 69.0804 139.53L149.2 93.53C150.118 92.9886 150.878 92.2162 151.404 91.2899C151.93 90.3635 152.205 89.3154 152.2 88.25V24.93C152.199 24.4247 152.007 23.9386 151.662 23.5694C151.316 23.2002 150.844 22.9754 150.34 22.94Z" fill="white"/>
<path d="M150.3 23.91C150.553 23.9277 150.79 24.0409 150.963 24.2265C151.135 24.4122 151.231 24.6565 151.23 24.91V88.2C151.228 89.0991 150.991 89.9821 150.542 90.7611C150.093 91.54 149.448 92.1878 148.67 92.64L68.5504 138.7C68.396 138.792 68.2199 138.84 68.0404 138.84C67.8296 138.856 67.6192 138.804 67.4395 138.693C67.2599 138.581 67.1201 138.416 67.0404 138.22C66.9889 138.089 66.9618 137.95 66.9604 137.81V74.53C66.9621 73.6321 67.1994 72.7505 67.6487 71.9731C68.0979 71.1957 68.7433 70.5498 69.5204 70.1L149.68 24C149.874 23.9092 150.086 23.8647 150.3 23.87V23.91ZM150.3 22.87C149.912 22.8662 149.528 22.9553 149.18 23.13L69.0904 69.26C68.1735 69.7998 67.4141 70.5704 66.8878 71.495C66.3614 72.4197 66.0865 73.466 66.0904 74.53V137.81C66.0912 138.081 66.1455 138.35 66.2504 138.6C66.4065 138.958 66.6639 139.262 66.9909 139.475C67.3178 139.688 67.7 139.801 68.0904 139.8C68.4421 139.803 68.7881 139.71 69.0904 139.53L149.21 93.53C150.128 92.9885 150.888 92.2162 151.414 91.2898C151.94 90.3635 152.215 89.3154 152.21 88.25V24.93C152.212 24.4246 152.022 23.9373 151.679 23.5663C151.335 23.1952 150.864 22.9679 150.36 22.93L150.3 22.87Z" fill="#E0E0E0"/>
<path d="M106.2 92C106.206 91.137 106.266 90.2753 106.38 89.42C100.79 91.34 96.4501 88.62 95.5601 82.59C89.2901 87.68 84.5601 96.81 84.5601 104.49C84.5601 113.25 90.7101 116.8 98.3001 112.42C102.7 109.88 106.6 105.23 109.12 100.07C107.29 98.47 106.2 95.72 106.2 92Z" fill="#7DA8FF"/>
<path opacity="0.7" d="M106.2 92C106.206 91.137 106.266 90.2753 106.38 89.42C100.79 91.34 96.4501 88.62 95.5601 82.59C89.2901 87.68 84.5601 96.81 84.5601 104.49C84.5601 113.25 90.7101 116.8 98.3001 112.42C102.7 109.88 106.6 105.23 109.12 100.07C107.29 98.47 106.2 95.72 106.2 92Z" fill="white"/>
<path d="M122.67 67C121.509 74.5333 117.667 81.3941 111.85 86.32C111.972 87.1008 112.036 87.8897 112.04 88.68C111.927 92.6658 110.929 96.5767 109.12 100.13C111.63 102.39 115.54 102.53 119.93 99.99C127.52 95.61 133.67 84.99 133.67 76.19C133.67 68.5 129 64.82 122.67 67Z" fill="#7DA8FF"/>
<path opacity="0.3" d="M122.67 67C121.509 74.5333 117.667 81.3941 111.85 86.32C111.972 87.1008 112.036 87.8897 112.04 88.68C111.927 92.6658 110.929 96.5767 109.12 100.13C111.63 102.39 115.54 102.53 119.93 99.99C127.52 95.61 133.67 84.99 133.67 76.19C133.67 68.5 129 64.82 122.67 67Z" fill="black"/>
<path d="M111.85 86.3C110.989 86.9983 110.077 87.6301 109.12 88.19C108.247 88.6958 107.33 89.1209 106.38 89.46C106.266 90.3154 106.206 91.1771 106.2 92.04C106.2 95.72 107.29 98.47 109.12 100.11C110.916 96.5535 111.899 92.6427 112 88.66C112.009 87.8707 111.959 87.0818 111.85 86.3Z" fill="#7DA8FF"/>
<path opacity="0.5" d="M111.85 86.3C110.989 86.9983 110.077 87.6301 109.12 88.19C108.247 88.6958 107.33 89.1209 106.38 89.46C106.266 90.3154 106.206 91.1771 106.2 92.04C106.2 95.72 107.29 98.47 109.12 100.11C110.916 96.5535 111.899 92.6427 112 88.66C112.009 87.8707 111.959 87.0818 111.85 86.3Z" fill="black"/>
<path d="M109.12 80.59C111.63 75.43 115.54 70.78 119.93 68.24C120.802 67.74 121.719 67.3248 122.67 67C122.784 66.1446 122.844 65.2829 122.85 64.42C122.85 55.66 116.7 52.11 109.12 56.49C101.54 60.87 95.3804 71.49 95.3804 80.28C95.3818 81.0733 95.4419 81.8655 95.5604 82.65C96.4219 81.945 97.3381 81.3097 98.3004 80.75C102.7 78.19 106.6 78.33 109.12 80.59Z" fill="#7DA8FF"/>
<path d="M106.38 89.46C106.805 86.3741 107.731 83.3781 109.12 80.59C106.6 78.33 102.7 78.19 98.3001 80.73C97.3378 81.2897 96.4216 81.925 95.5601 82.63C96.4501 88.66 100.79 91.38 106.38 89.46Z" fill="#7DA8FF"/>
<path opacity="0.3" d="M106.38 89.46C106.805 86.3741 107.731 83.3781 109.12 80.59C106.6 78.33 102.7 78.19 98.3001 80.73C97.3378 81.2897 96.4216 81.925 95.5601 82.63C96.4501 88.66 100.79 91.38 106.38 89.46Z" fill="white"/>
<path d="M109.12 80.59C110.67 82.1151 111.637 84.1358 111.85 86.3C117.663 81.3791 121.505 74.5262 122.67 67C121.719 67.3312 120.801 67.7532 119.93 68.26C115.54 70.78 111.63 75.43 109.12 80.59Z" fill="#7DA8FF"/>
<path opacity="0.7" d="M109.12 80.59C110.67 82.1151 111.637 84.1358 111.85 86.3C117.663 81.3791 121.505 74.5262 122.67 67C121.719 67.3312 120.801 67.7532 119.93 68.26C115.54 70.78 111.63 75.43 109.12 80.59Z" fill="black"/>
<path d="M109.12 80.59C107.731 83.3781 106.806 86.374 106.38 89.46C107.33 89.1209 108.248 88.6958 109.12 88.19C110.077 87.6301 110.99 86.9982 111.85 86.3C111.637 84.1358 110.671 82.1151 109.12 80.59Z" fill="#263238"/>
<path d="M196.59 72C196.268 71.9963 195.949 72.0682 195.66 72.21L129.46 110.27C128.692 110.709 128.054 111.344 127.611 112.11C127.168 112.876 126.937 113.745 126.94 114.63V166.92C126.94 167.146 126.985 167.37 127.07 167.58C127.164 167.792 127.301 167.982 127.474 168.138C127.646 168.294 127.848 168.412 128.069 168.485C128.289 168.557 128.523 168.583 128.754 168.56C128.985 168.536 129.208 168.465 129.41 168.35L195.62 130.29C196.386 129.85 197.022 129.215 197.463 128.449C197.904 127.683 198.134 126.814 198.13 125.93V73.66C198.136 73.2383 197.979 72.8306 197.692 72.5215C197.406 72.2124 197.011 72.0256 196.59 72Z" fill="#E0E0E0"/>
<path d="M196.56 72.82C196.769 72.84 196.962 72.9372 197.103 73.0926C197.244 73.248 197.321 73.4504 197.32 73.66V126C197.32 126.741 197.125 127.47 196.755 128.112C196.384 128.755 195.852 129.288 195.21 129.66L129 167.67C128.874 167.749 128.729 167.79 128.58 167.79C128.414 167.791 128.252 167.744 128.113 167.653C127.974 167.562 127.865 167.433 127.8 167.28C127.752 167.173 127.728 167.057 127.73 166.94V114.65C127.73 113.909 127.925 113.18 128.296 112.538C128.666 111.895 129.199 111.362 129.84 110.99L196.05 72.92C196.21 72.8485 196.385 72.8143 196.56 72.82ZM196.56 72.02C196.238 72.0163 195.92 72.0882 195.63 72.23L129.43 110.29C128.662 110.729 128.024 111.364 127.581 112.13C127.138 112.896 126.907 113.765 126.91 114.65V166.94C126.911 167.166 126.955 167.39 127.04 167.6C127.133 167.813 127.27 168.005 127.442 168.161C127.614 168.318 127.817 168.437 128.038 168.509C128.259 168.582 128.492 168.607 128.724 168.583C128.955 168.559 129.179 168.487 129.38 168.37L195.59 130.31C196.357 129.87 196.993 129.235 197.433 128.469C197.874 127.703 198.104 126.834 198.1 125.95V73.66C198.107 73.2432 197.954 72.8397 197.674 72.5313C197.393 72.223 197.006 72.033 196.59 72L196.56 72.02Z" fill="#E0E0E0"/>
<path d="M127.66 168.3L129.98 169.93V166.16L127.66 168.3Z" fill="#E0E0E0"/>
<path d="M197.33 72.27L199.69 73.91L196.79 75.96L197.33 72.27Z" fill="#E0E0E0"/>
<path d="M198.85 73.61C198.527 73.6071 198.208 73.6826 197.92 73.83L131.72 111.89C130.953 112.328 130.316 112.961 129.874 113.725C129.431 114.489 129.199 115.357 129.2 116.24V168.53C129.199 168.757 129.247 168.983 129.34 169.19C129.434 169.402 129.572 169.592 129.744 169.748C129.916 169.904 130.119 170.022 130.339 170.095C130.56 170.167 130.793 170.193 131.024 170.17C131.255 170.146 131.479 170.075 131.68 169.96L197.89 131.9C198.657 131.46 199.293 130.825 199.734 130.059C200.174 129.293 200.404 128.424 200.4 127.54V75.25C200.401 74.8302 200.24 74.4261 199.952 74.121C199.664 73.8159 199.269 73.633 198.85 73.61Z" fill="white"/>
<path d="M198.82 74.41C199.029 74.4277 199.224 74.5243 199.366 74.6802C199.507 74.8361 199.583 75.0398 199.58 75.25V127.54C199.579 128.283 199.383 129.012 199.013 129.656C198.643 130.299 198.111 130.835 197.47 131.21L131.26 169.27C131.131 169.341 130.987 169.379 130.84 169.38C130.674 169.38 130.512 169.332 130.374 169.241C130.235 169.151 130.126 169.022 130.06 168.87C130.012 168.763 129.988 168.647 129.99 168.53V116.24C129.991 115.498 130.188 114.768 130.56 114.126C130.932 113.484 131.466 112.95 132.11 112.58L198.31 74.52C198.47 74.4461 198.644 74.4085 198.82 74.41ZM198.82 73.61C198.497 73.6071 198.178 73.6826 197.89 73.83L131.69 111.89C130.923 112.328 130.286 112.961 129.843 113.725C129.401 114.489 129.168 115.357 129.17 116.24V168.53C129.169 168.757 129.217 168.983 129.31 169.19C129.441 169.485 129.653 169.736 129.923 169.914C130.192 170.091 130.507 170.187 130.83 170.19C131.118 170.19 131.401 170.114 131.65 169.97L197.86 131.91C198.626 131.47 199.262 130.835 199.703 130.069C200.144 129.303 200.374 128.434 200.37 127.55V75.25C200.371 74.8335 200.213 74.4322 199.929 74.1276C199.645 73.823 199.256 73.6379 198.84 73.61H198.82Z" fill="#E0E0E0"/>
<path d="M192.11 125.86L142.17 154.69L156.93 116.3L167.14 128.44L177.59 113.56L192.11 125.86Z" fill="#7DA8FF"/>
<path opacity="0.4" d="M192.11 125.86L142.17 154.69L156.93 116.3L167.14 128.44L177.59 113.56L192.11 125.86Z" fill="white"/>
<path d="M174.79 101.91C174.704 103.49 174.248 105.027 173.457 106.398C172.667 107.769 171.565 108.934 170.24 109.8C167.72 111.25 165.68 110.07 165.68 107.17C165.765 105.589 166.222 104.05 167.014 102.678C167.807 101.307 168.912 100.143 170.24 99.28C172.75 97.83 174.79 99 174.79 101.91Z" fill="#7DA8FF"/>
<path d="M294.89 253.45L309.89 333.19C310.015 333.814 310.378 334.364 310.902 334.725C311.426 335.086 312.069 335.228 312.697 335.123C313.324 335.018 313.886 334.673 314.263 334.161C314.641 333.649 314.805 333.01 314.72 332.38L303.72 258.5L294.89 253.45Z" fill="#263238"/>
<path d="M323.7 305.15L308.44 398.26C308.328 398.938 307.979 399.555 307.456 400C306.932 400.445 306.267 400.69 305.58 400.69C305.171 400.691 304.767 400.606 304.394 400.44C304.02 400.274 303.686 400.031 303.414 399.727C303.141 399.423 302.935 399.065 302.81 398.676C302.686 398.287 302.645 397.876 302.69 397.47L313.4 301.41L323.7 305.15Z" fill="#455A64"/>
<path d="M271 273.83L255.74 366.94C255.631 367.62 255.283 368.239 254.759 368.686C254.235 369.133 253.569 369.379 252.88 369.38C252.471 369.38 252.067 369.293 251.693 369.126C251.32 368.959 250.986 368.715 250.714 368.41C250.441 368.106 250.235 367.747 250.111 367.357C249.986 366.968 249.945 366.556 249.99 366.15L260.7 270.15L271 273.83Z" fill="#455A64"/>
<path d="M348.16 283.38L363.16 363.61C363.289 364.229 363.652 364.774 364.174 365.131C364.695 365.489 365.335 365.63 365.958 365.527C366.582 365.424 367.142 365.083 367.52 364.577C367.899 364.071 368.067 363.437 367.99 362.81L356.87 288.44L348.16 283.38Z" fill="#263238"/>
<path d="M298.2 247.38C301.647 245.852 304.629 243.439 306.844 240.387C309.058 237.335 310.426 233.751 310.81 230C313.24 205.57 321.81 155.23 351 172C387 192.68 374.1 252.75 368.87 272C367.699 276.344 365.422 280.31 362.26 283.51C355.75 290.06 342.26 301.34 319.4 310.94C316.588 312.116 313.461 312.303 310.53 311.47C299.16 308.23 269.45 298.28 254.63 279.33C253.789 278.255 253.406 276.891 253.566 275.535C253.725 274.179 254.413 272.941 255.48 272.09C261.49 267.28 275.05 257.7 298.2 247.38Z" fill="#7DA8FF"/>
<path opacity="0.3" d="M298.2 247.38C301.647 245.852 304.629 243.439 306.844 240.387C309.058 237.335 310.426 233.751 310.81 230C313.24 205.57 321.81 155.23 351 172C387 192.68 374.1 252.75 368.87 272C367.699 276.344 365.422 280.31 362.26 283.51C355.75 290.06 342.26 301.34 319.4 310.94C316.588 312.116 313.461 312.303 310.53 311.47C299.16 308.23 269.45 298.28 254.63 279.33C253.789 278.255 253.406 276.891 253.566 275.535C253.725 274.179 254.413 272.941 255.48 272.09C261.49 267.28 275.05 257.7 298.2 247.38Z" fill="black"/>
<path d="M253.56 275.84C253.486 277.082 253.866 278.308 254.63 279.29C255.42 280.29 256.26 281.29 257.13 282.29C257.61 282.81 258.13 283.29 258.59 283.84C259.09 284.34 259.59 284.84 260.1 285.33H260.15C260.66 285.82 261.15 286.33 261.71 286.78C262.24 287.26 262.79 287.78 263.34 288.19C271.74 295.25 281.94 300.62 291.05 304.49L292.74 305.19L292.91 305.26C293.44 305.48 293.91 305.69 294.47 305.89L294.74 306L296.19 306.56L296.52 306.69L297.87 307.2L298.26 307.35L299.51 307.8L299.96 307.96L301.11 308.37L301.59 308.54L302.65 308.9L303.16 309.08L304.16 309.4L304.71 309.58L305.58 309.86L306.16 310.04L306.91 310.28L307.54 310.47L308.18 310.67L308.95 310.9L309.34 311.01L310.43 311.33C313.361 312.163 316.489 311.976 319.3 310.8C342.19 301.2 355.65 289.92 362.16 283.37C365.338 280.22 367.649 276.304 368.87 272C374.1 252.7 387 192.63 351 172C350.36 171.63 349.74 171.31 349.12 171L348.71 170.81C348.103 170.517 347.503 170.257 346.91 170.03L346.74 169.97C346.17 169.75 345.62 169.57 345.07 169.41L344.82 169.34C344.22 169.17 343.64 169.04 343.07 168.93H342.93C341.792 168.724 340.635 168.644 339.48 168.69H339.41C338.304 168.736 337.207 168.907 336.14 169.2C341.89 166.66 348.91 166.77 355.87 170.77C391.87 191.46 378.97 251.53 373.74 270.77L372.85 274.08C371.065 280.764 367.116 286.668 361.62 290.87L352.28 298C342.183 305.622 331.145 311.911 319.44 316.71C316.62 317.894 313.482 318.085 310.54 317.25C299.18 314 269.45 304 254.63 285.07C254 284.258 253.627 283.276 253.56 282.25V275.83V275.84Z" fill="#7DA8FF"/>
<path opacity="0.5" d="M253.56 275.84C253.486 277.082 253.866 278.308 254.63 279.29C255.42 280.29 256.26 281.29 257.13 282.29C257.61 282.81 258.13 283.29 258.59 283.84C259.09 284.34 259.59 284.84 260.1 285.33H260.15C260.66 285.82 261.15 286.33 261.71 286.78C262.24 287.26 262.79 287.78 263.34 288.19C271.74 295.25 281.94 300.62 291.05 304.49L292.74 305.19L292.91 305.26C293.44 305.48 293.91 305.69 294.47 305.89L294.74 306L296.19 306.56L296.52 306.69L297.87 307.2L298.26 307.35L299.51 307.8L299.96 307.96L301.11 308.37L301.59 308.54L302.65 308.9L303.16 309.08L304.16 309.4L304.71 309.58L305.58 309.86L306.16 310.04L306.91 310.28L307.54 310.47L308.18 310.67L308.95 310.9L309.34 311.01L310.43 311.33C313.361 312.163 316.489 311.976 319.3 310.8C342.19 301.2 355.65 289.92 362.16 283.37C365.338 280.22 367.649 276.304 368.87 272C374.1 252.7 387 192.63 351 172C350.36 171.63 349.74 171.31 349.12 171L348.71 170.81C348.103 170.517 347.503 170.257 346.91 170.03L346.74 169.97C346.17 169.75 345.62 169.57 345.07 169.41L344.82 169.34C344.22 169.17 343.64 169.04 343.07 168.93H342.93C341.792 168.724 340.635 168.644 339.48 168.69H339.41C338.304 168.736 337.207 168.907 336.14 169.2C341.89 166.66 348.91 166.77 355.87 170.77C391.87 191.46 378.97 251.53 373.74 270.77L372.85 274.08C371.065 280.764 367.116 286.668 361.62 290.87L352.28 298C342.183 305.622 331.145 311.911 319.44 316.71C316.62 317.894 313.482 318.085 310.54 317.25C299.18 314 269.45 304 254.63 285.07C254 284.258 253.627 283.276 253.56 282.25V275.83V275.84Z" fill="black"/>
<path d="M467.85 117.237H275.737V160.795H467.85V117.237Z" fill="url(#paint0_linear)"/>
<path d="M467.85 177.394H275.737V220.952H467.85V177.394Z" fill="url(#paint1_linear)"/>
<path d="M467.85 237.551H275.737V281.109H467.85V237.551Z" fill="url(#paint2_linear)"/>
<path d="M467.85 297.708H275.737V341.266H467.85V297.708Z" fill="url(#paint3_linear)"/>
<path d="M467.85 357.865H275.737V401.423H467.85V357.865Z" fill="url(#paint4_linear)"/>
<path d="M282.059 375.988L283.256 388.447C283.256 388.447 278.467 395.663 272.26 396.114C266.053 396.564 263.917 393.584 263.917 393.584L264.933 375.25" fill="#E9CAC5"/>
<path d="M263.917 393.603L264.329 386.252L282.576 381.355L283.256 388.466C283.256 388.466 278.467 395.683 272.26 396.133C266.053 396.584 263.917 393.603 263.917 393.603Z" fill="white"/>
<path d="M223.774 377.311L222.548 390.105C222.548 390.105 227.443 397.523 233.841 397.992C240.24 398.462 242.404 395.395 242.404 395.395L241.36 376.563" fill="#E9CAC5"/>
<path d="M242.404 395.395L241.992 387.853L223.248 382.802L222.548 390.105C222.548 390.105 227.443 397.523 233.841 397.992C240.24 398.462 242.404 395.395 242.404 395.395Z" fill="white"/>
<path d="M239.09 97.5142C239.09 97.5142 214.349 109.475 213.794 113.394C213.238 117.314 216.59 213.64 216.59 213.64C216.59 213.64 224.617 224.057 249.214 224.057C274.405 224.057 280.89 216.851 282.011 213.515C283.131 210.18 287.154 114.123 286.599 110.011C286.043 105.9 263.228 97.5526 263.228 97.5526L239.09 97.5142Z" fill="#0066B2"/>
<path d="M241.446 106.533V220.464C241.446 220.464 252.892 226.099 266.542 219.256L261.752 99.3256L250.555 107.347L241.446 106.533Z" fill="#F2FBFF"/>
<path d="M239.167 82.554C239.167 82.554 238.985 91.1794 239.09 97.5142C239.167 102.229 240.776 111.286 250.805 111.286C260.833 111.286 262.011 99.7855 261.829 97.5142C261.695 95.9041 262.481 92.6073 261.829 87.4705C261.169 81.9694 239.723 78.7301 239.167 82.554Z" fill="#E9CAC5"/>
<path d="M243.17 98.4822C244.192 99.4364 245.398 100.17 246.714 100.639C248.638 101.372 250.693 101.698 252.749 101.597C253.995 101.559 255.215 101.23 256.312 100.639C257.513 99.8622 258.548 98.8557 259.358 97.6772C260.345 96.5524 261.112 95.252 261.618 93.8437C261.84 93.0341 261.962 92.2006 261.982 91.3615C262.062 89.5799 261.998 87.7947 261.791 86.0234C256.657 86.5792 251.523 86.9818 246.379 87.3459C243.429 87.5568 238.352 88.2276 239.674 92.387C240.355 94.661 241.551 96.747 243.17 98.4822Z" fill="url(#paint5_linear)"/>
<path d="M216.591 213.64C216.591 213.64 215.47 231.849 218.276 285.939C221.083 340.03 222.481 377.866 222.481 377.866C222.481 377.866 222.845 382.284 232.146 382.419C241.446 382.553 243.918 376.4 243.918 376.4L253.007 237.791L262.5 379.246C262.5 379.246 273.668 385.668 282.375 380.847C288.553 377.426 282.02 213.535 282.02 213.535C282.02 213.535 252.174 229.932 216.591 213.64Z" fill="#606161"/>
<path d="M216.591 213.64C216.591 213.64 215.47 231.849 218.276 285.939C221.083 340.03 222.481 377.866 222.481 377.866C222.481 377.866 222.845 382.284 232.146 382.419C241.446 382.553 243.918 376.4 243.918 376.4L253.007 237.791L262.5 379.246C262.5 379.246 273.668 385.668 282.375 380.847C288.553 377.426 282.02 213.535 282.02 213.535C282.02 213.535 252.174 229.932 216.591 213.64Z" fill="url(#paint6_linear)"/>
<path d="M286.599 110.031C286.599 110.031 297.825 157.24 298.696 165.271C299.568 173.302 292.154 192.431 287.566 191.147C277.375 188.272 279.003 170.858 279.003 170.858L286.599 110.031Z" fill="#0066B2"/>
<path d="M293.648 198.306C293.901 198.024 294.229 197.819 294.593 197.715C294.958 197.612 295.344 197.614 295.708 197.721C296.073 197.923 296.393 198.197 296.648 198.526C296.903 198.856 297.089 199.234 297.192 199.638C299.453 205.388 299.185 210.487 299.367 216.4C299.501 220.559 299.97 225.169 299.079 229.271C298.294 232.894 287.585 241.96 286.091 240.877C284.597 239.794 287.863 236.708 289.999 234.897C292.135 233.085 292.25 228.552 292.566 227.105C292.882 225.658 289.386 225.648 290.325 221.307C291.024 218.087 292.422 216.515 292.183 213.151C291.897 209.165 292.028 205.159 292.576 201.2C292.64 200.299 292.916 199.426 293.38 198.651C293.461 198.529 293.55 198.414 293.648 198.306Z" fill="#E9CAC5"/>
<path d="M282.059 183.557C281.896 184.276 290.957 214.071 290.957 214.071C290.957 214.071 294.98 214.905 301.292 211.848C301.292 211.848 300.114 170.015 299.07 167.111C298.026 164.207 296.005 164.878 286.618 168.204C277.231 171.529 282.059 183.557 282.059 183.557Z" fill="#0066B2"/>
<path d="M213.027 111.497C213.027 111.497 201.792 158.706 200.93 166.737C200.068 174.768 207.462 193.898 212.05 192.613C222.242 189.738 220.623 172.315 220.623 172.315L213.027 111.497Z" fill="#0066B2"/>
<path d="M205.968 199.744C205.716 199.461 205.388 199.256 205.023 199.153C204.659 199.049 204.272 199.052 203.909 199.159C203.542 199.357 203.221 199.63 202.967 199.96C202.713 200.29 202.531 200.67 202.434 201.076C200.164 206.826 200.442 211.915 200.25 217.828C200.126 221.987 199.656 226.607 200.537 230.709C201.323 234.331 212.031 243.388 213.535 242.305C215.039 241.222 211.754 238.136 209.618 236.325C207.482 234.513 207.367 229.98 207.051 228.533C206.735 227.086 210.231 227.086 209.292 222.735C208.593 219.524 207.204 217.943 207.434 214.579C207.72 210.596 207.588 206.594 207.041 202.638C206.98 201.738 206.707 200.864 206.246 200.089C206.165 199.965 206.072 199.849 205.968 199.744Z" fill="#E9CAC5"/>
<path d="M217.558 185.013C217.73 185.732 208.66 215.528 208.66 215.528C208.66 215.528 204.637 216.362 198.325 213.305C198.325 213.305 199.503 171.472 200.547 168.568C201.591 165.664 203.612 166.335 212.999 169.67C222.386 173.005 217.558 185.013 217.558 185.013Z" fill="#0066B2"/>
<path d="M231.179 392.223C227.664 390.421 223.813 388.389 219.982 389.348C218.035 389.94 216.239 390.943 214.714 392.29C211.562 394.772 208.516 397.676 207.108 401.433C205.7 405.19 206.352 409.991 209.58 412.387C211.984 414.179 215.202 414.304 218.2 414.304C221.927 414.434 225.654 414.044 229.273 413.144C232.005 412.276 234.622 411.082 237.069 409.589C239.943 407.931 242.864 405.985 244.349 403.014C245.47 400.772 245.709 395.903 242.893 394.571C241.562 393.948 239.167 394.858 237.539 394.571C235.308 394.131 233.161 393.338 231.179 392.223Z" fill="#0066B2"/>
<path d="M273.841 392.223C277.346 390.421 281.197 388.389 285.028 389.348C286.974 389.94 288.771 390.943 290.296 392.29C293.447 394.772 296.493 397.676 297.901 401.433C299.309 405.19 298.658 409.991 295.44 412.387C293.036 414.179 289.808 414.304 286.819 414.304C283.092 414.434 279.366 414.044 275.747 413.144C273.015 412.276 270.397 411.082 267.95 409.589C265.076 407.931 262.203 405.985 260.67 403.014C259.55 400.772 259.31 395.903 262.126 394.571C263.458 393.948 265.852 394.858 267.481 394.571C269.711 394.13 271.858 393.337 273.841 392.223Z" fill="#0066B2"/>
<path d="M276.072 142.903L273.659 216.946L282.021 213.535L283.572 190.007L280.632 172.075L276.072 142.903Z" fill="url(#paint7_linear)"/>
<path d="M231.227 55.5088C231.401 65.3624 232.833 75.1532 235.489 84.6433C236.03 87.0655 237.035 89.3599 238.449 91.3998C240.156 93.5086 242.549 94.9502 245.211 95.4729C247.84 95.959 250.542 95.8675 253.132 95.2046C256.684 94.5197 259.912 92.6842 262.318 89.9814C263.728 88.1177 264.804 86.0228 265.498 83.7904C268.115 76.241 268.944 68.187 267.921 60.2623C267.414 56.4289 266.312 52.3941 263.439 50.0174C261.709 48.7241 259.69 47.8721 257.557 47.5352C249.897 46.0128 241.946 47.2663 235.125 51.0716C234.024 51.5904 233.079 52.3903 232.386 53.3908C231.794 54.5799 231.504 55.8966 231.543 57.2243" fill="#E9CAC5"/>
<path d="M232.72 72.3857C232.414 69.2902 230.872 66.4822 229.445 63.7604C228.017 61.0386 226.657 58.0102 226.782 54.9434C226.906 51.8766 229.014 48.599 232.098 48.2348C232.874 44.0467 234.971 39.9353 238.496 37.5777C243.554 34.1755 250.258 35.0668 256.101 36.8206C260.823 38.239 265.881 40.6541 267.653 45.2159C268.212 46.8713 268.534 48.5975 268.611 50.3432C269.109 56.5343 269.482 63.2429 266.063 68.4181C266.185 63.9465 265.653 59.4811 264.482 55.1638C256.558 58.3094 247.77 58.5067 239.713 55.7197C231.102 52.7391 232.194 67.0093 232.72 72.3857Z" fill="#606161"/>
<path d="M450.475 311.739H424.805C422.388 311.739 420.428 313.7 420.428 316.119V328.846C420.428 331.265 422.388 333.226 424.805 333.226H450.475C452.893 333.226 454.852 331.265 454.852 328.846V316.119C454.852 313.7 452.893 311.739 450.475 311.739Z" fill="#0066B2"/>
<path d="M438.531 316.186H435.332C433.99 316.186 432.704 315.653 431.756 314.704C430.807 313.755 430.274 312.468 430.274 311.126C430.274 309.783 430.807 308.496 431.756 307.547C432.704 306.598 433.99 306.065 435.332 306.065H438.531C439.872 306.065 441.159 306.598 442.107 307.547C443.056 308.496 443.588 309.783 443.588 311.126C443.588 312.468 443.056 313.755 442.107 314.704C441.159 315.653 439.872 316.186 438.531 316.186ZM435.332 309.477C434.882 309.477 434.451 309.656 434.133 309.974C433.815 310.292 433.636 310.724 433.636 311.173C433.636 311.623 433.815 312.055 434.133 312.373C434.451 312.691 434.882 312.87 435.332 312.87H438.531C438.981 312.87 439.412 312.691 439.73 312.373C440.048 312.055 440.226 311.623 440.226 311.173C440.226 310.724 440.048 310.292 439.73 309.974C439.412 309.656 438.981 309.477 438.531 309.477H435.332Z" fill="#0066B2"/>
<path d="M449.47 133.137V154.94H441.989V141.197H435.14V154.94H426.855V133.137L438.129 127.205L449.47 133.137Z" fill="#0066B2"/>
<path d="M424.058 132.945C423.872 132.942 423.693 132.877 423.548 132.762C423.403 132.646 423.3 132.486 423.255 132.305C423.21 132.125 423.226 131.935 423.3 131.765C423.374 131.595 423.503 131.454 423.665 131.364L438.033 123.649L452.362 131.048C452.459 131.099 452.546 131.168 452.616 131.253C452.687 131.337 452.74 131.435 452.773 131.54C452.806 131.645 452.818 131.755 452.808 131.865C452.798 131.974 452.767 132.081 452.716 132.178C452.665 132.276 452.596 132.363 452.511 132.433C452.427 132.504 452.329 132.557 452.224 132.59C452.12 132.623 452.009 132.635 451.9 132.625C451.79 132.615 451.683 132.584 451.586 132.533L438.09 125.547L424.508 132.849C424.369 132.921 424.214 132.954 424.058 132.945Z" fill="#68E1FD"/>
<path d="M437.171 210.468C434.45 209.787 426.874 204.545 424.891 199.705C424.45 198.687 424.206 197.594 424.173 196.485C424.237 194.944 424.808 193.467 425.797 192.283C426.786 191.1 428.137 190.276 429.642 189.939C431.181 189.611 432.784 189.774 434.224 190.407C435.665 191.04 436.87 192.11 437.669 193.466C438.563 192.023 439.91 190.917 441.5 190.323C445.83 188.77 448.99 192.93 449.163 194.214C450.523 205.015 437.171 210.468 437.171 210.468Z" fill="#0066B2"/>
<path d="M437.439 275.714V271.641C435.255 271.632 433.115 271.014 431.261 269.858L432.219 267.155C433.951 268.278 435.969 268.88 438.033 268.89C440.907 268.89 442.822 267.232 442.822 264.932C442.822 262.632 441.251 261.338 438.263 260.14C434.144 258.521 431.606 256.661 431.606 253.154C431.606 249.799 433.991 247.26 437.698 246.656V242.573H440.198V246.493C442.039 246.507 443.846 246.992 445.447 247.902L444.441 250.566C442.902 249.654 441.143 249.18 439.355 249.196C436.242 249.196 435.073 251.055 435.073 252.674C435.073 254.764 436.568 255.818 440.083 257.275C444.24 258.971 446.338 261.108 446.338 264.664C446.338 267.845 444.115 270.836 439.958 271.526V275.723L437.439 275.714Z" fill="#0066B2"/>
<path d="M431.692 93.5562C438.639 93.3453 445.584 93.3006 452.525 93.422C452.878 91.18 452.549 88.8834 451.578 86.8319C450.607 84.7803 449.041 83.0691 447.084 81.9215C446.126 81.3657 444.939 80.8386 444.632 79.7556C444.326 78.6727 444.977 77.6855 445.312 76.6697C445.658 75.6472 445.687 74.5442 445.397 73.5048C445.106 72.4653 444.51 71.5376 443.684 70.8428C442.83 70.1847 441.773 69.8456 440.696 69.8841C439.619 69.9225 438.589 70.3362 437.784 71.0536C437.127 71.738 436.65 72.5743 436.395 73.4879C435.804 75.2012 435.901 77.0767 436.663 78.7206C437.103 79.3224 437.362 80.0371 437.41 80.7811C437.334 81.5765 436.644 82.142 436.06 82.6978C434.608 84.0974 433.468 85.7883 432.715 87.6597C431.963 89.531 431.614 91.5405 431.692 93.5562Z" fill="#0066B2"/>
<path d="M449.326 395.28H424.69V366.836L445.379 366.797L449.326 370.909V395.28Z" fill="#0066B2"/>
<path d="M444.268 376.515H430.217V379.199H444.268V376.515Z" fill="url(#paint8_linear)"/>
<path d="M444.268 385.169H430.217V387.853H444.268V385.169Z" fill="url(#paint9_linear)"/>
<path opacity="0.24" d="M416.089 77.4459H329.395C327.173 77.4459 325.372 79.2481 325.372 81.4711V81.4807C325.372 83.7037 327.173 85.5058 329.395 85.5058H416.089C418.31 85.5058 420.112 83.7037 420.112 81.4807V81.4711C420.112 79.2481 418.31 77.4459 416.089 77.4459Z" fill="#0066B2"/>
<path opacity="0.24" d="M416.089 139.06H329.395C327.173 139.06 325.372 140.862 325.372 143.085V143.094C325.372 145.317 327.173 147.119 329.395 147.119H416.089C418.31 147.119 420.112 145.317 420.112 143.094V143.085C420.112 140.862 418.31 139.06 416.089 139.06Z" fill="#0066B2"/>
<path opacity="0.24" d="M416.089 200.673H329.395C327.173 200.673 325.372 202.475 325.372 204.698V204.708C325.372 206.931 327.173 208.733 329.395 208.733H416.089C418.31 208.733 420.112 206.931 420.112 204.708V204.698C420.112 202.475 418.31 200.673 416.089 200.673Z" fill="#0066B2"/>
<path opacity="0.24" d="M416.089 262.287H329.395C327.173 262.287 325.372 264.089 325.372 266.312V266.322C325.372 268.545 327.173 270.347 329.395 270.347H416.089C418.31 270.347 420.112 268.545 420.112 266.322V266.312C420.112 264.089 418.31 262.287 416.089 262.287Z" fill="#0066B2"/>
<path opacity="0.24" d="M416.089 323.901H329.395C327.173 323.901 325.372 325.703 325.372 327.926V327.935C325.372 330.158 327.173 331.96 329.395 331.96H416.089C418.31 331.96 420.112 330.158 420.112 327.935V327.926C420.112 325.703 418.31 323.901 416.089 323.901Z" fill="#0066B2"/>
<path opacity="0.24" d="M416.089 385.524H329.395C327.173 385.524 325.372 387.326 325.372 389.549V389.559C325.372 391.782 327.173 393.584 329.395 393.584H416.089C418.31 393.584 420.112 391.782 420.112 389.559V389.549C420.112 387.326 418.31 385.524 416.089 385.524Z" fill="#0066B2"/>
</g>
<defs>
<linearGradient id="paint0_linear" x1="49301.1" y1="6435.75" x2="87835.1" y2="6435.75" gradientUnits="userSpaceOnUse">
<stop stop-color="white" stop-opacity="0"/>
<stop offset="0.13" stop-color="white" stop-opacity="0.23"/>
<stop offset="0.23" stop-color="white" stop-opacity="0.41"/>
<stop offset="0.35" stop-color="white" stop-opacity="0.59"/>
<stop offset="0.48" stop-color="white" stop-opacity="0.74"/>
<stop offset="0.6" stop-color="white" stop-opacity="0.85"/>
<stop offset="0.72" stop-color="white" stop-opacity="0.93"/>
<stop offset="0.84" stop-color="white" stop-opacity="0.98"/>
<stop offset="0.95" stop-color="white"/>
</linearGradient>
<linearGradient id="paint1_linear" x1="49301.1" y1="9230.04" x2="87835.1" y2="9230.04" gradientUnits="userSpaceOnUse">
<stop stop-color="white" stop-opacity="0"/>
<stop offset="0.13" stop-color="white" stop-opacity="0.23"/>
<stop offset="0.23" stop-color="white" stop-opacity="0.41"/>
<stop offset="0.35" stop-color="white" stop-opacity="0.59"/>
<stop offset="0.48" stop-color="white" stop-opacity="0.74"/>
<stop offset="0.6" stop-color="white" stop-opacity="0.85"/>
<stop offset="0.72" stop-color="white" stop-opacity="0.93"/>
<stop offset="0.84" stop-color="white" stop-opacity="0.98"/>
<stop offset="0.95" stop-color="white"/>
</linearGradient>
<linearGradient id="paint2_linear" x1="49301.1" y1="12023.9" x2="87835.1" y2="12023.9" gradientUnits="userSpaceOnUse">
<stop stop-color="white" stop-opacity="0"/>
<stop offset="0.13" stop-color="white" stop-opacity="0.23"/>
<stop offset="0.23" stop-color="white" stop-opacity="0.41"/>
<stop offset="0.35" stop-color="white" stop-opacity="0.59"/>
<stop offset="0.48" stop-color="white" stop-opacity="0.74"/>
<stop offset="0.6" stop-color="white" stop-opacity="0.85"/>
<stop offset="0.72" stop-color="white" stop-opacity="0.93"/>
<stop offset="0.84" stop-color="white" stop-opacity="0.98"/>
<stop offset="0.95" stop-color="white"/>
</linearGradient>
<linearGradient id="paint3_linear" x1="49301.1" y1="14818.2" x2="87835.1" y2="14818.2" gradientUnits="userSpaceOnUse">
<stop stop-color="white" stop-opacity="0"/>
<stop offset="0.13" stop-color="white" stop-opacity="0.23"/>
<stop offset="0.23" stop-color="white" stop-opacity="0.41"/>
<stop offset="0.35" stop-color="white" stop-opacity="0.59"/>
<stop offset="0.48" stop-color="white" stop-opacity="0.74"/>
<stop offset="0.6" stop-color="white" stop-opacity="0.85"/>
<stop offset="0.72" stop-color="white" stop-opacity="0.93"/>
<stop offset="0.84" stop-color="white" stop-opacity="0.98"/>
<stop offset="0.95" stop-color="white"/>
</linearGradient>
<linearGradient id="paint4_linear" x1="49301.1" y1="17612.5" x2="87835.1" y2="17612.5" gradientUnits="userSpaceOnUse">
<stop stop-color="white" stop-opacity="0"/>
<stop offset="0.13" stop-color="white" stop-opacity="0.23"/>
<stop offset="0.23" stop-color="white" stop-opacity="0.41"/>
<stop offset="0.35" stop-color="white" stop-opacity="0.59"/>
<stop offset="0.48" stop-color="white" stop-opacity="0.74"/>
<stop offset="0.6" stop-color="white" stop-opacity="0.85"/>
<stop offset="0.72" stop-color="white" stop-opacity="0.93"/>
<stop offset="0.84" stop-color="white" stop-opacity="0.98"/>
<stop offset="0.95" stop-color="white"/>
</linearGradient>
<linearGradient id="paint5_linear" x1="250.096" y1="102.881" x2="253.653" y2="37.185" gradientUnits="userSpaceOnUse">
<stop stop-color="#010101" stop-opacity="0"/>
<stop offset="0.95" stop-color="#010101"/>
</linearGradient>
<linearGradient id="paint6_linear" x1="16000.4" y1="60210.8" x2="18372.7" y2="26907.6" gradientUnits="userSpaceOnUse">
<stop stop-color="#010101" stop-opacity="0"/>
<stop offset="0.95" stop-color="#010101"/>
</linearGradient>
<linearGradient id="paint7_linear" x1="2732.82" y1="14069" x2="3758.68" y2="14061.4" gradientUnits="userSpaceOnUse">
<stop stop-color="#010101" stop-opacity="0"/>
<stop offset="0.95" stop-color="#010101"/>
</linearGradient>
<linearGradient id="paint8_linear" x1="6282.24" y1="1434.52" x2="6488.51" y2="1434.52" gradientUnits="userSpaceOnUse">
<stop stop-color="white" stop-opacity="0"/>
<stop offset="0.13" stop-color="white" stop-opacity="0.23"/>
<stop offset="0.23" stop-color="white" stop-opacity="0.41"/>
<stop offset="0.35" stop-color="white" stop-opacity="0.59"/>
<stop offset="0.48" stop-color="white" stop-opacity="0.74"/>
<stop offset="0.6" stop-color="white" stop-opacity="0.85"/>
<stop offset="0.72" stop-color="white" stop-opacity="0.93"/>
<stop offset="0.84" stop-color="white" stop-opacity="0.98"/>
<stop offset="0.95" stop-color="white"/>
</linearGradient>
<linearGradient id="paint9_linear" x1="6282.24" y1="1467.4" x2="6488.51" y2="1467.4" gradientUnits="userSpaceOnUse">
<stop stop-color="white" stop-opacity="0"/>
<stop offset="0.13" stop-color="white" stop-opacity="0.23"/>
<stop offset="0.23" stop-color="white" stop-opacity="0.41"/>
<stop offset="0.35" stop-color="white" stop-opacity="0.59"/>
<stop offset="0.48" stop-color="white" stop-opacity="0.74"/>
<stop offset="0.6" stop-color="white" stop-opacity="0.85"/>
<stop offset="0.72" stop-color="white" stop-opacity="0.93"/>
<stop offset="0.84" stop-color="white" stop-opacity="0.98"/>
<stop offset="0.95" stop-color="white"/>
</linearGradient>
<clipPath id="clip0">
<rect width="597" height="448" fill="white"/>
</clipPath>
</defs>
</svg>
